<svg xmlns="http://www.w3.org/2000/svg" xmlns:xlink="http://www.w3.org/1999/xlink" width="500" zoomAndPan="magnify" viewBox="0 0 375 374.999991" height="500" preserveAspectRatio="xMidYMid meet" version="1.0"><defs><g/><clipPath id="0fa85d61b5"><path d="M 272.175781 122.5625 L 362 122.5625 L 362 212.5625 L 272.175781 212.5625 Z M 272.175781 122.5625 " clip-rule="nonzero"/></clipPath></defs><rect x="-37.5" width="450" fill="#ffffff" y="-37.499999" height="449.999989" fill-opacity="1"/><rect x="-37.5" width="450" fill="#e4e2dd" y="-37.499999" height="449.999989" fill-opacity="1"/><g clip-path="url(#0fa85d61b5)"><path fill="#4b4b4b" d="M 278.066406 202.855469 L 281.613281 206.398438 L 275.308594 209.160156 Z M 284.230469 188.761719 L 295.707031 200.238281 L 284.457031 205.15625 L 279.3125 200.011719 Z M 344.964844 127.078125 C 346 126.042969 347.425781 125.457031 348.882812 125.457031 C 350.339844 125.457031 351.765625 126.042969 352.800781 127.078125 L 357.390625 131.667969 C 358.425781 132.703125 359.011719 134.128906 359.011719 135.585938 C 359.011719 137.042969 358.425781 138.46875 357.390625 139.503906 L 349.605469 147.289062 L 337.179688 134.863281 Z M 335.855469 155 L 338.875 158.019531 L 298.226562 198.667969 L 295.210938 195.648438 Z M 331.515625 150.65625 L 333.8125 152.953125 L 293.164062 193.601562 L 290.867188 191.304688 Z M 329.46875 148.613281 L 288.820312 189.257812 L 285.800781 186.242188 L 326.449219 145.59375 Z M 332.839844 139.203125 L 335.132812 136.910156 L 347.558594 149.335938 L 345.265625 151.628906 Z M 343.21875 153.675781 L 340.921875 155.972656 L 328.496094 143.546875 L 330.792969 141.25 Z M 359.4375 141.550781 C 361.007812 139.980469 361.90625 137.808594 361.90625 135.585938 C 361.90625 133.363281 361.007812 131.195312 359.4375 129.621094 L 354.847656 125.03125 C 353.273438 123.460938 351.105469 122.5625 348.882812 122.5625 C 346.660156 122.5625 344.488281 123.460938 342.917969 125.03125 L 282.539062 185.410156 L 272.175781 209.097656 L 272.175781 212.292969 L 330.066406 212.292969 C 332.464844 212.292969 334.410156 210.347656 334.410156 207.949219 C 334.410156 205.550781 332.464844 203.609375 330.066406 203.609375 L 319.9375 203.609375 C 319.140625 203.609375 318.488281 202.957031 318.488281 202.160156 C 318.488281 201.363281 319.140625 200.714844 319.9375 200.714844 L 353.222656 200.714844 L 353.222656 197.820312 L 319.9375 197.820312 C 317.539062 197.820312 315.59375 199.761719 315.59375 202.160156 C 315.59375 204.558594 317.539062 206.503906 319.9375 206.503906 L 330.066406 206.503906 C 330.863281 206.503906 331.515625 207.152344 331.515625 207.949219 C 331.515625 208.746094 330.863281 209.398438 330.066406 209.398438 L 281.992188 209.398438 L 299.058594 201.929688 L 359.4375 141.550781 " fill-opacity="1" fill-rule="nonzero"/></g><g fill="#6a0808" fill-opacity="1"><g transform="translate(6.65323, 211.02091)"><g><path d="M 29.015625 -27.8125 C 29.015625 -26.007812 28.5625 -24.617188 27.65625 -23.640625 C 26.757812 -22.671875 25.40625 -21.945312 23.59375 -21.46875 C 24.457031 -20.820312 25.128906 -20.0625 25.609375 -19.1875 C 26.097656 -18.3125 26.34375 -17.382812 26.34375 -16.40625 C 26.34375 -13.925781 25.40625 -12.050781 23.53125 -10.78125 C 21.65625 -9.507812 19.3125 -8.875 16.5 -8.875 L 13.125 -8.875 C 11.257812 -8.875 10.328125 -8.441406 10.328125 -7.578125 C 10.328125 -7.171875 10.535156 -6.835938 10.953125 -6.578125 C 11.367188 -6.328125 12.09375 -6.203125 13.125 -6.203125 L 21.109375 -6.203125 C 23.710938 -6.203125 25.679688 -5.519531 27.015625 -4.15625 C 28.347656 -2.800781 29.015625 -0.988281 29.015625 1.28125 C 29.015625 2.96875 28.566406 4.414062 27.671875 5.625 C 26.785156 6.84375 25.585938 7.757812 24.078125 8.375 C 22.578125 9 20.9375 9.3125 19.15625 9.3125 L 6.125 9.3125 C 5.0625 9.3125 4.078125 9.0625 3.171875 8.5625 C 2.265625 8.0625 1.546875 7.375 1.015625 6.5 C 0.484375 5.625 0.21875 4.65625 0.21875 3.59375 C 0.21875 2.4375 0.570312 1.390625 1.28125 0.453125 C 1.988281 -0.472656 2.878906 -1.171875 3.953125 -1.640625 C 3.242188 -2.140625 2.679688 -2.742188 2.265625 -3.453125 C 1.847656 -4.171875 1.640625 -4.941406 1.640625 -5.765625 C 1.640625 -6.921875 2.066406 -7.960938 2.921875 -8.890625 C 3.785156 -9.828125 4.851562 -10.457031 6.125 -10.78125 C 4.96875 -11.519531 4.046875 -12.367188 3.359375 -13.328125 C 2.679688 -14.285156 2.34375 -15.300781 2.34375 -16.375 C 2.34375 -19.09375 3.441406 -21.035156 5.640625 -22.203125 C 7.847656 -23.367188 10.773438 -23.953125 14.421875 -23.953125 C 16.015625 -23.953125 17.300781 -23.863281 18.28125 -23.6875 C 19.726562 -24.601562 20.664062 -25.4375 21.09375 -26.1875 C 21.519531 -26.945312 21.734375 -27.488281 21.734375 -27.8125 Z M 14.328125 -19.34375 C 13.347656 -19.34375 12.546875 -19.085938 11.921875 -18.578125 C 11.304688 -18.078125 11 -17.351562 11 -16.40625 C 11 -15.4375 11.285156 -14.707031 11.859375 -14.21875 C 12.441406 -13.726562 13.265625 -13.484375 14.328125 -13.484375 C 15.390625 -13.484375 16.222656 -13.726562 16.828125 -14.21875 C 17.441406 -14.707031 17.75 -15.4375 17.75 -16.40625 C 17.75 -17.382812 17.441406 -18.117188 16.828125 -18.609375 C 16.222656 -19.097656 15.390625 -19.34375 14.328125 -19.34375 Z M 10.90625 0 C 10.226562 0 9.675781 0.179688 9.25 0.546875 C 8.820312 0.921875 8.609375 1.445312 8.609375 2.125 C 8.609375 2.8125 8.828125 3.359375 9.265625 3.765625 C 9.710938 4.179688 10.257812 4.390625 10.90625 4.390625 L 17.828125 4.390625 C 18.484375 4.390625 19.039062 4.1875 19.5 3.78125 C 19.957031 3.382812 20.1875 2.847656 20.1875 2.171875 C 20.1875 1.492188 19.960938 0.960938 19.515625 0.578125 C 19.078125 0.191406 18.515625 0 17.828125 0 Z M 10.90625 0 "/></g></g></g><g fill="#6a0808" fill-opacity="1"><g transform="translate(33.702112, 211.02091)"><g><path d="M 16.90625 -24 C 17.582031 -24 18.1875 -23.914062 18.71875 -23.75 C 19.25 -23.59375 19.515625 -23.5 19.515625 -23.46875 L 19.515625 -16.0625 L 16.671875 -16.0625 C 14.835938 -16.0625 13.515625 -15.585938 12.703125 -14.640625 C 11.890625 -13.691406 11.484375 -12.285156 11.484375 -10.421875 L 11.484375 0 L 2.65625 0 L 2.65625 -23.421875 L 9.890625 -23.421875 L 10.46875 -19.875 C 11 -21.226562 11.84375 -22.253906 13 -22.953125 C 14.15625 -23.648438 15.457031 -24 16.90625 -24 Z M 16.90625 -24 "/></g></g></g><g fill="#6a0808" fill-opacity="1"><g transform="translate(50.862349, 211.02091)"><g><path d="M 14.234375 -23.953125 C 17.816406 -23.953125 20.726562 -23.351562 22.96875 -22.15625 C 25.21875 -20.957031 26.34375 -19.015625 26.34375 -16.328125 L 26.34375 -7.1875 C 26.34375 -6.6875 26.460938 -6.269531 26.703125 -5.9375 C 26.941406 -5.613281 27.296875 -5.453125 27.765625 -5.453125 L 29.359375 -5.453125 L 29.359375 -0.359375 C 29.273438 -0.296875 29.046875 -0.195312 28.671875 -0.0625 C 28.304688 0.0703125 27.78125 0.203125 27.09375 0.328125 C 26.414062 0.460938 25.632812 0.53125 24.75 0.53125 C 23.039062 0.53125 21.628906 0.273438 20.515625 -0.234375 C 19.410156 -0.753906 18.648438 -1.472656 18.234375 -2.390625 C 17.109375 -1.503906 15.847656 -0.796875 14.453125 -0.265625 C 13.066406 0.265625 11.441406 0.53125 9.578125 0.53125 C 4.078125 0.53125 1.328125 -1.65625 1.328125 -6.03125 C 1.328125 -8.3125 1.941406 -10.050781 3.171875 -11.25 C 4.398438 -12.445312 6.164062 -13.265625 8.46875 -13.703125 C 10.78125 -14.148438 13.796875 -14.375 17.515625 -14.375 L 17.515625 -15.53125 C 17.515625 -16.445312 17.195312 -17.140625 16.5625 -17.609375 C 15.925781 -18.085938 15.109375 -18.328125 14.109375 -18.328125 C 13.191406 -18.328125 12.398438 -18.160156 11.734375 -17.828125 C 11.066406 -17.503906 10.734375 -16.988281 10.734375 -16.28125 L 10.734375 -16.109375 L 2.046875 -16.109375 C 2.015625 -16.253906 2 -16.457031 2 -16.71875 C 2 -18.9375 3.054688 -20.695312 5.171875 -22 C 7.285156 -23.300781 10.304688 -23.953125 14.234375 -23.953125 Z M 17.515625 -10.203125 C 15.003906 -10.203125 13.148438 -9.925781 11.953125 -9.375 C 10.753906 -8.832031 10.15625 -8.101562 10.15625 -7.1875 C 10.15625 -5.707031 11.160156 -4.96875 13.171875 -4.96875 C 14.328125 -4.96875 15.335938 -5.273438 16.203125 -5.890625 C 17.078125 -6.515625 17.515625 -7.285156 17.515625 -8.203125 Z M 17.515625 -10.203125 "/></g></g></g><g fill="#6a0808" fill-opacity="1"><g transform="translate(77.911231, 211.02091)"><g><path d="M 18.09375 -23.953125 C 21.257812 -23.953125 23.695312 -22.914062 25.40625 -20.84375 C 27.125 -18.78125 27.984375 -15.722656 27.984375 -11.671875 C 27.984375 -7.648438 27.125 -4.609375 25.40625 -2.546875 C 23.695312 -0.492188 21.257812 0.53125 18.09375 0.53125 C 15.375 0.53125 13.1875 -0.351562 11.53125 -2.125 L 11.53125 8.734375 L 2.703125 8.734375 L 2.703125 -23.421875 L 9.890625 -23.421875 L 10.640625 -20.09375 C 12.359375 -22.664062 14.84375 -23.953125 18.09375 -23.953125 Z M 15.34375 -17.4375 C 14.039062 -17.4375 13.0625 -16.976562 12.40625 -16.0625 C 11.757812 -15.144531 11.4375 -13.945312 11.4375 -12.46875 L 11.4375 -11 C 11.4375 -9.519531 11.757812 -8.3125 12.40625 -7.375 C 13.0625 -6.445312 14.039062 -5.984375 15.34375 -5.984375 C 17.882812 -5.984375 19.15625 -7.507812 19.15625 -10.5625 L 19.15625 -12.90625 C 19.15625 -15.925781 17.882812 -17.4375 15.34375 -17.4375 Z M 15.34375 -17.4375 "/></g></g></g><g fill="#6a0808" fill-opacity="1"><g transform="translate(104.960113, 211.02091)"><g><path d="M 11.484375 -20.984375 C 12.429688 -21.929688 13.539062 -22.660156 14.8125 -23.171875 C 16.082031 -23.691406 17.414062 -23.953125 18.8125 -23.953125 C 21.53125 -23.953125 23.566406 -23.195312 24.921875 -21.6875 C 26.285156 -20.175781 26.96875 -18.003906 26.96875 -15.171875 L 26.96875 0 L 18.140625 0 L 18.140625 -14.109375 C 18.140625 -15.109375 17.878906 -15.910156 17.359375 -16.515625 C 16.847656 -17.128906 16.117188 -17.4375 15.171875 -17.4375 C 14.078125 -17.4375 13.1875 -17.078125 12.5 -16.359375 C 11.820312 -15.648438 11.484375 -14.78125 11.484375 -13.75 L 11.484375 0 L 2.65625 0 L 2.65625 -32.15625 L 11.484375 -32.15625 Z M 11.484375 -20.984375 "/></g></g></g><g fill="#6a0808" fill-opacity="1"><g transform="translate(132.008988, 211.02091)"><g><path d="M 2.96875 -26.171875 L 2.96875 -32.15625 L 11.796875 -32.15625 L 11.796875 -26.171875 Z M 2.96875 0 L 2.96875 -23.421875 L 11.796875 -23.421875 L 11.796875 0 Z M 2.96875 0 "/></g></g></g><g fill="#6a0808" fill-opacity="1"><g transform="translate(144.24707, 211.02091)"><g><path d="M 18.28125 -23.421875 L 18.28125 -17.4375 L 13.3125 -17.4375 L 13.3125 -8.515625 C 13.3125 -7.453125 13.488281 -6.675781 13.84375 -6.1875 C 14.195312 -5.695312 14.847656 -5.453125 15.796875 -5.453125 L 18.28125 -5.453125 L 18.28125 -0.265625 C 17.570312 -0.0234375 16.65625 0.164062 15.53125 0.3125 C 14.40625 0.457031 13.425781 0.53125 12.59375 0.53125 C 9.988281 0.53125 7.984375 0.0546875 6.578125 -0.890625 C 5.179688 -1.835938 4.484375 -3.445312 4.484375 -5.71875 L 4.484375 -17.4375 L 1.203125 -17.4375 L 1.203125 -23.421875 L 4.828125 -23.421875 L 6.75 -30.515625 L 13.3125 -30.515625 L 13.3125 -23.421875 Z M 18.28125 -23.421875 "/></g></g></g><g fill="#6a0808" fill-opacity="1"><g transform="translate(161.407302, 211.02091)"><g><path d="M 14.765625 -23.953125 C 19.054688 -23.953125 22.332031 -22.945312 24.59375 -20.9375 C 26.851562 -18.925781 27.984375 -15.847656 27.984375 -11.703125 L 27.984375 -10.203125 L 10.421875 -10.203125 C 10.421875 -8.515625 10.796875 -7.238281 11.546875 -6.375 C 12.304688 -5.519531 13.5 -5.09375 15.125 -5.09375 C 16.601562 -5.09375 17.6875 -5.40625 18.375 -6.03125 C 19.070312 -6.65625 19.421875 -7.484375 19.421875 -8.515625 L 27.984375 -8.515625 C 27.984375 -5.679688 26.90625 -3.460938 24.75 -1.859375 C 22.59375 -0.265625 19.441406 0.53125 15.296875 0.53125 C 10.953125 0.53125 7.582031 -0.476562 5.1875 -2.5 C 2.789062 -4.53125 1.59375 -7.597656 1.59375 -11.703125 C 1.59375 -15.734375 2.757812 -18.78125 5.09375 -20.84375 C 7.4375 -22.914062 10.660156 -23.953125 14.765625 -23.953125 Z M 15.125 -18.328125 C 12.34375 -18.328125 10.789062 -17.007812 10.46875 -14.375 L 19.078125 -14.375 C 19.078125 -15.582031 18.726562 -16.539062 18.03125 -17.25 C 17.332031 -17.96875 16.363281 -18.328125 15.125 -18.328125 Z M 15.125 -18.328125 "/></g></g></g><g fill="#6a0808" fill-opacity="1"><g transform="translate(188.456189, 211.02091)"><g><path d="M 19.703125 0 L 18.9375 -3.328125 C 17.226562 -0.753906 14.742188 0.53125 11.484375 0.53125 C 8.328125 0.53125 5.890625 -0.5 4.171875 -2.5625 C 2.453125 -4.632812 1.59375 -7.695312 1.59375 -11.75 C 1.59375 -15.769531 2.453125 -18.804688 4.171875 -20.859375 C 5.890625 -22.921875 8.328125 -23.953125 11.484375 -23.953125 C 14.179688 -23.953125 16.367188 -23.050781 18.046875 -21.25 L 18.046875 -32.15625 L 26.875 -32.15625 L 26.875 0 Z M 14.234375 -17.4375 C 11.691406 -17.4375 10.421875 -15.910156 10.421875 -12.859375 L 10.421875 -10.515625 C 10.421875 -7.492188 11.691406 -5.984375 14.234375 -5.984375 C 15.535156 -5.984375 16.507812 -6.441406 17.15625 -7.359375 C 17.8125 -8.273438 18.140625 -9.472656 18.140625 -10.953125 L 18.140625 -12.421875 C 18.140625 -13.898438 17.8125 -15.101562 17.15625 -16.03125 C 16.507812 -16.96875 15.535156 -17.4375 14.234375 -17.4375 Z M 14.234375 -17.4375 "/></g></g></g><g fill="#6a0808" fill-opacity="1"><g transform="translate(215.505077, 211.02091)"><g><path d="M 29.015625 -27.8125 C 29.015625 -26.007812 28.5625 -24.617188 27.65625 -23.640625 C 26.757812 -22.671875 25.40625 -21.945312 23.59375 -21.46875 C 24.457031 -20.820312 25.128906 -20.0625 25.609375 -19.1875 C 26.097656 -18.3125 26.34375 -17.382812 26.34375 -16.40625 C 26.34375 -13.925781 25.40625 -12.050781 23.53125 -10.78125 C 21.65625 -9.507812 19.3125 -8.875 16.5 -8.875 L 13.125 -8.875 C 11.257812 -8.875 10.328125 -8.441406 10.328125 -7.578125 C 10.328125 -7.171875 10.535156 -6.835938 10.953125 -6.578125 C 11.367188 -6.328125 12.09375 -6.203125 13.125 -6.203125 L 21.109375 -6.203125 C 23.710938 -6.203125 25.679688 -5.519531 27.015625 -4.15625 C 28.347656 -2.800781 29.015625 -0.988281 29.015625 1.28125 C 29.015625 2.96875 28.566406 4.414062 27.671875 5.625 C 26.785156 6.84375 25.585938 7.757812 24.078125 8.375 C 22.578125 9 20.9375 9.3125 19.15625 9.3125 L 6.125 9.3125 C 5.0625 9.3125 4.078125 9.0625 3.171875 8.5625 C 2.265625 8.0625 1.546875 7.375 1.015625 6.5 C 0.484375 5.625 0.21875 4.65625 0.21875 3.59375 C 0.21875 2.4375 0.570312 1.390625 1.28125 0.453125 C 1.988281 -0.472656 2.878906 -1.171875 3.953125 -1.640625 C 3.242188 -2.140625 2.679688 -2.742188 2.265625 -3.453125 C 1.847656 -4.171875 1.640625 -4.941406 1.640625 -5.765625 C 1.640625 -6.921875 2.066406 -7.960938 2.921875 -8.890625 C 3.785156 -9.828125 4.851562 -10.457031 6.125 -10.78125 C 4.96875 -11.519531 4.046875 -12.367188 3.359375 -13.328125 C 2.679688 -14.285156 2.34375 -15.300781 2.34375 -16.375 C 2.34375 -19.09375 3.441406 -21.035156 5.640625 -22.203125 C 7.847656 -23.367188 10.773438 -23.953125 14.421875 -23.953125 C 16.015625 -23.953125 17.300781 -23.863281 18.28125 -23.6875 C 19.726562 -24.601562 20.664062 -25.4375 21.09375 -26.1875 C 21.519531 -26.945312 21.734375 -27.488281 21.734375 -27.8125 Z M 14.328125 -19.34375 C 13.347656 -19.34375 12.546875 -19.085938 11.921875 -18.578125 C 11.304688 -18.078125 11 -17.351562 11 -16.40625 C 11 -15.4375 11.285156 -14.707031 11.859375 -14.21875 C 12.441406 -13.726562 13.265625 -13.484375 14.328125 -13.484375 C 15.390625 -13.484375 16.222656 -13.726562 16.828125 -14.21875 C 17.441406 -14.707031 17.75 -15.4375 17.75 -16.40625 C 17.75 -17.382812 17.441406 -18.117188 16.828125 -18.609375 C 16.222656 -19.097656 15.390625 -19.34375 14.328125 -19.34375 Z M 10.90625 0 C 10.226562 0 9.675781 0.179688 9.25 0.546875 C 8.820312 0.921875 8.609375 1.445312 8.609375 2.125 C 8.609375 2.8125 8.828125 3.359375 9.265625 3.765625 C 9.710938 4.179688 10.257812 4.390625 10.90625 4.390625 L 17.828125 4.390625 C 18.484375 4.390625 19.039062 4.1875 19.5 3.78125 C 19.957031 3.382812 20.1875 2.847656 20.1875 2.171875 C 20.1875 1.492188 19.960938 0.960938 19.515625 0.578125 C 19.078125 0.191406 18.515625 0 17.828125 0 Z M 10.90625 0 "/></g></g></g><g fill="#6a0808" fill-opacity="1"><g transform="translate(242.553965, 211.02091)"><g><path d="M 14.765625 -23.953125 C 19.054688 -23.953125 22.332031 -22.945312 24.59375 -20.9375 C 26.851562 -18.925781 27.984375 -15.847656 27.984375 -11.703125 L 27.984375 -10.203125 L 10.421875 -10.203125 C 10.421875 -8.515625 10.796875 -7.238281 11.546875 -6.375 C 12.304688 -5.519531 13.5 -5.09375 15.125 -5.09375 C 16.601562 -5.09375 17.6875 -5.40625 18.375 -6.03125 C 19.070312 -6.65625 19.421875 -7.484375 19.421875 -8.515625 L 27.984375 -8.515625 C 27.984375 -5.679688 26.90625 -3.460938 24.75 -1.859375 C 22.59375 -0.265625 19.441406 0.53125 15.296875 0.53125 C 10.953125 0.53125 7.582031 -0.476562 5.1875 -2.5 C 2.789062 -4.53125 1.59375 -7.597656 1.59375 -11.703125 C 1.59375 -15.734375 2.757812 -18.78125 5.09375 -20.84375 C 7.4375 -22.914062 10.660156 -23.953125 14.765625 -23.953125 Z M 15.125 -18.328125 C 12.34375 -18.328125 10.789062 -17.007812 10.46875 -14.375 L 19.078125 -14.375 C 19.078125 -15.582031 18.726562 -16.539062 18.03125 -17.25 C 17.332031 -17.96875 16.363281 -18.328125 15.125 -18.328125 Z M 15.125 -18.328125 "/></g></g></g></svg>