<svg xmlns="http://www.w3.org/2000/svg" xmlns:xlink="http://www.w3.org/1999/xlink" width="1024" zoomAndPan="magnify" viewBox="0 0 768 576" height="768" preserveAspectRatio="xMidYMid meet" version="1.0"><defs><g/><clipPath id="a6ffaa8802"><path d="M 521.4375 57.601562 L 694.238281 57.601562 L 694.238281 121.703125 L 521.4375 121.703125 Z M 521.4375 57.601562 " clip-rule="nonzero"/></clipPath><clipPath id="2e79ef46a9"><path d="M 283.914062 57.601562 L 456.714844 57.601562 L 456.714844 121.703125 L 283.914062 121.703125 Z M 283.914062 57.601562 " clip-rule="nonzero"/></clipPath><clipPath id="c785660565"><path d="M 283.914062 174.957031 L 456.714844 174.957031 L 456.714844 239.0625 L 283.914062 239.0625 Z M 283.914062 174.957031 " clip-rule="nonzero"/></clipPath><clipPath id="fd4d83fe04"><path d="M 283.914062 301.636719 L 456.714844 301.636719 L 456.714844 365.738281 L 283.914062 365.738281 Z M 283.914062 301.636719 " clip-rule="nonzero"/></clipPath><clipPath id="907065768b"><path d="M 521.4375 174.957031 L 694.238281 174.957031 L 694.238281 239.0625 L 521.4375 239.0625 Z M 521.4375 174.957031 " clip-rule="nonzero"/></clipPath><clipPath id="30407f8db8"><path d="M 521.4375 301.636719 L 694.238281 301.636719 L 694.238281 365.738281 L 521.4375 365.738281 Z M 521.4375 301.636719 " clip-rule="nonzero"/></clipPath><clipPath id="9b1404b521"><path d="M 50.167969 57.601562 L 222.96875 57.601562 L 222.96875 124.488281 L 50.167969 124.488281 Z M 50.167969 57.601562 " clip-rule="nonzero"/></clipPath><clipPath id="45c12056eb"><path d="M 164.792969 64.546875 L 205 64.546875 L 205 114.796875 L 164.792969 114.796875 Z M 164.792969 64.546875 " clip-rule="nonzero"/></clipPath><clipPath id="9b65d5d600"><path d="M 50.167969 174.957031 L 222.96875 174.957031 L 222.96875 241.847656 L 50.167969 241.847656 Z M 50.167969 174.957031 " clip-rule="nonzero"/></clipPath><clipPath id="c89d242e28"><path d="M 170 183.273438 L 207.15625 183.273438 L 207.15625 230.523438 L 170 230.523438 Z M 170 183.273438 " clip-rule="nonzero"/></clipPath><clipPath id="b52670bbac"><path d="M 192 183.273438 L 207.15625 183.273438 L 207.15625 198 L 192 198 Z M 192 183.273438 " clip-rule="nonzero"/></clipPath><clipPath id="47452c95c2"><path d="M 162.90625 203 L 199 203 L 199 218 L 162.90625 218 Z M 162.90625 203 " clip-rule="nonzero"/></clipPath><clipPath id="6316b48e1b"><path d="M 50.167969 298.847656 L 222.96875 298.847656 L 222.96875 365.738281 L 50.167969 365.738281 Z M 50.167969 298.847656 " clip-rule="nonzero"/></clipPath><clipPath id="7ad1121557"><path d="M 178 346 L 214 346 L 214 353.523438 L 178 353.523438 Z M 178 346 " clip-rule="nonzero"/></clipPath><clipPath id="2266f11d1b"><path d="M 178 305.523438 L 214 305.523438 L 214 336 L 178 336 Z M 178 305.523438 " clip-rule="nonzero"/></clipPath><clipPath id="11a8f1231a"><path d="M 202 305.523438 L 214 305.523438 L 214 317 L 202 317 Z M 202 305.523438 " clip-rule="nonzero"/></clipPath><clipPath id="0c21e94f85"><path d="M 175.335938 334 L 216.585938 334 L 216.585938 349 L 175.335938 349 Z M 175.335938 334 " clip-rule="nonzero"/></clipPath></defs><g clip-path="url(#a6ffaa8802)"><path fill="#8b2222" d="M 521.4375 57.601562 L 694.214844 57.601562 L 694.214844 121.703125 L 521.4375 121.703125 Z M 521.4375 57.601562 " fill-opacity="1" fill-rule="nonzero"/></g><g fill="#ffffff" fill-opacity="1"><g transform="translate(575.040275, 94.350021)"><g><path d="M 1.15625 0 L 1.15625 -9.953125 L 4.40625 -9.953125 C 5.488281 -9.953125 6.300781 -9.726562 6.84375 -9.28125 C 7.382812 -8.832031 7.65625 -8.171875 7.65625 -7.296875 C 7.65625 -6.835938 7.523438 -6.425781 7.265625 -6.0625 C 7.003906 -5.707031 6.644531 -5.429688 6.1875 -5.234375 C 6.726562 -5.085938 7.15625 -4.800781 7.46875 -4.375 C 7.78125 -3.957031 7.9375 -3.457031 7.9375 -2.875 C 7.9375 -1.976562 7.644531 -1.273438 7.0625 -0.765625 C 6.476562 -0.253906 5.660156 0 4.609375 0 Z M 2.46875 -4.65625 L 2.46875 -1.078125 L 4.640625 -1.078125 C 5.242188 -1.078125 5.722656 -1.234375 6.078125 -1.546875 C 6.429688 -1.867188 6.609375 -2.304688 6.609375 -2.859375 C 6.609375 -4.054688 5.957031 -4.65625 4.65625 -4.65625 Z M 2.46875 -5.703125 L 4.453125 -5.703125 C 5.023438 -5.703125 5.484375 -5.84375 5.828125 -6.125 C 6.171875 -6.414062 6.34375 -6.8125 6.34375 -7.3125 C 6.34375 -7.851562 6.179688 -8.25 5.859375 -8.5 C 5.546875 -8.75 5.0625 -8.875 4.40625 -8.875 L 2.46875 -8.875 Z M 2.46875 -5.703125 "/></g></g></g><g fill="#ffffff" fill-opacity="1"><g transform="translate(583.751231, 94.350021)"><g><path d="M 5.53125 -0.734375 C 5.03125 -0.148438 4.304688 0.140625 3.359375 0.140625 C 2.566406 0.140625 1.960938 -0.0859375 1.546875 -0.546875 C 1.140625 -1.003906 0.9375 -1.679688 0.9375 -2.578125 L 0.9375 -7.390625 L 2.1875 -7.390625 L 2.1875 -2.625 C 2.1875 -1.5 2.644531 -0.9375 3.5625 -0.9375 C 4.53125 -0.9375 5.171875 -1.296875 5.484375 -2.015625 L 5.484375 -7.390625 L 6.75 -7.390625 L 6.75 0 L 5.546875 0 Z M 5.53125 -0.734375 "/></g></g></g><g fill="#ffffff" fill-opacity="1"><g transform="translate(591.464697, 94.350021)"><g><path d="M 2.328125 0 L 1.0625 0 L 1.0625 -7.390625 L 2.328125 -7.390625 Z M 0.96875 -9.359375 C 0.96875 -9.566406 1.03125 -9.738281 1.15625 -9.875 C 1.28125 -10.019531 1.460938 -10.09375 1.703125 -10.09375 C 1.953125 -10.09375 2.140625 -10.019531 2.265625 -9.875 C 2.398438 -9.738281 2.46875 -9.566406 2.46875 -9.359375 C 2.46875 -9.148438 2.398438 -8.976562 2.265625 -8.84375 C 2.140625 -8.707031 1.953125 -8.640625 1.703125 -8.640625 C 1.460938 -8.640625 1.28125 -8.707031 1.15625 -8.84375 C 1.03125 -8.976562 0.96875 -9.148438 0.96875 -9.359375 Z M 0.96875 -9.359375 "/></g></g></g><g fill="#ffffff" fill-opacity="1"><g transform="translate(594.860262, 94.350021)"><g><path d="M 2.328125 0 L 1.0625 0 L 1.0625 -10.5 L 2.328125 -10.5 Z M 2.328125 0 "/></g></g></g><g fill="#ffffff" fill-opacity="1"><g transform="translate(598.255827, 94.350021)"><g><path d="M 0.65625 -3.765625 C 0.65625 -4.898438 0.921875 -5.8125 1.453125 -6.5 C 1.992188 -7.1875 2.695312 -7.53125 3.5625 -7.53125 C 4.4375 -7.53125 5.125 -7.234375 5.625 -6.640625 L 5.625 -10.5 L 6.890625 -10.5 L 6.890625 0 L 5.734375 0 L 5.671875 -0.796875 C 5.160156 -0.171875 4.457031 0.140625 3.5625 0.140625 C 2.695312 0.140625 1.992188 -0.207031 1.453125 -0.90625 C 0.921875 -1.613281 0.65625 -2.535156 0.65625 -3.671875 Z M 1.921875 -3.609375 C 1.921875 -2.773438 2.09375 -2.117188 2.4375 -1.640625 C 2.78125 -1.171875 3.257812 -0.9375 3.875 -0.9375 C 4.675781 -0.9375 5.257812 -1.296875 5.625 -2.015625 L 5.625 -5.421875 C 5.25 -6.109375 4.671875 -6.453125 3.890625 -6.453125 C 3.265625 -6.453125 2.78125 -6.210938 2.4375 -5.734375 C 2.09375 -5.265625 1.921875 -4.554688 1.921875 -3.609375 Z M 1.921875 -3.609375 "/></g></g></g><g fill="#ffffff" fill-opacity="1"><g transform="translate(606.146928, 94.350021)"><g/></g></g><g fill="#ffffff" fill-opacity="1"><g transform="translate(609.610814, 94.350021)"><g><path d="M 1.15625 0 L 1.15625 -9.953125 L 3.96875 -9.953125 C 4.832031 -9.953125 5.597656 -9.757812 6.265625 -9.375 C 6.929688 -9 7.441406 -8.457031 7.796875 -7.75 C 8.160156 -7.039062 8.347656 -6.226562 8.359375 -5.3125 L 8.359375 -4.671875 C 8.359375 -3.734375 8.175781 -2.910156 7.8125 -2.203125 C 7.445312 -1.503906 6.925781 -0.960938 6.25 -0.578125 C 5.582031 -0.203125 4.800781 -0.0078125 3.90625 0 Z M 2.46875 -8.875 L 2.46875 -1.078125 L 3.84375 -1.078125 C 4.851562 -1.078125 5.640625 -1.390625 6.203125 -2.015625 C 6.773438 -2.640625 7.0625 -3.535156 7.0625 -4.703125 L 7.0625 -5.28125 C 7.0625 -6.414062 6.796875 -7.296875 6.265625 -7.921875 C 5.734375 -8.546875 4.976562 -8.863281 4 -8.875 Z M 2.46875 -8.875 "/></g></g></g><g fill="#ffffff" fill-opacity="1"><g transform="translate(618.786355, 94.350021)"><g><path d="M 8.8125 -4.65625 C 8.8125 -3.675781 8.644531 -2.820312 8.3125 -2.09375 C 7.988281 -1.375 7.523438 -0.820312 6.921875 -0.4375 C 6.316406 -0.0507812 5.613281 0.140625 4.8125 0.140625 C 4.03125 0.140625 3.335938 -0.0507812 2.734375 -0.4375 C 2.128906 -0.820312 1.660156 -1.367188 1.328125 -2.078125 C 0.992188 -2.796875 0.820312 -3.625 0.8125 -4.5625 L 0.8125 -5.28125 C 0.8125 -6.238281 0.976562 -7.082031 1.3125 -7.8125 C 1.644531 -8.550781 2.113281 -9.113281 2.71875 -9.5 C 3.320312 -9.894531 4.019531 -10.09375 4.8125 -10.09375 C 5.601562 -10.09375 6.300781 -9.898438 6.90625 -9.515625 C 7.519531 -9.128906 7.988281 -8.566406 8.3125 -7.828125 C 8.644531 -7.097656 8.8125 -6.25 8.8125 -5.28125 Z M 7.5 -5.296875 C 7.5 -6.472656 7.257812 -7.378906 6.78125 -8.015625 C 6.3125 -8.648438 5.65625 -8.96875 4.8125 -8.96875 C 3.976562 -8.96875 3.320312 -8.648438 2.84375 -8.015625 C 2.375 -7.378906 2.128906 -6.503906 2.109375 -5.390625 L 2.109375 -4.65625 C 2.109375 -3.507812 2.347656 -2.609375 2.828125 -1.953125 C 3.316406 -1.304688 3.976562 -0.984375 4.8125 -0.984375 C 5.664062 -0.984375 6.320312 -1.289062 6.78125 -1.90625 C 7.25 -2.519531 7.488281 -3.40625 7.5 -4.5625 Z M 7.5 -5.296875 "/></g></g></g><g fill="#ffffff" fill-opacity="1"><g transform="translate(628.405984, 94.350021)"><g><path d="M 2.84375 -9.953125 L 6.109375 -1.828125 L 9.359375 -9.953125 L 11.0625 -9.953125 L 11.0625 0 L 9.75 0 L 9.75 -3.875 L 9.875 -8.0625 L 6.609375 0 L 5.59375 0 L 2.34375 -8.046875 L 2.46875 -3.875 L 2.46875 0 L 1.15625 0 L 1.15625 -9.953125 Z M 2.84375 -9.953125 "/></g></g></g><g clip-path="url(#2e79ef46a9)"><path fill="#8b2222" d="M 283.914062 57.601562 L 456.691406 57.601562 L 456.691406 121.703125 L 283.914062 121.703125 Z M 283.914062 57.601562 " fill-opacity="1" fill-rule="nonzero"/></g><g fill="#ffffff" fill-opacity="1"><g transform="translate(331.634488, 94.350021)"><g><path d="M 2.46875 -3.890625 L 2.46875 0 L 1.15625 0 L 1.15625 -9.953125 L 4.828125 -9.953125 C 5.910156 -9.953125 6.757812 -9.671875 7.375 -9.109375 C 8 -8.554688 8.3125 -7.820312 8.3125 -6.90625 C 8.3125 -5.945312 8.007812 -5.203125 7.40625 -4.671875 C 6.800781 -4.148438 5.9375 -3.890625 4.8125 -3.890625 Z M 2.46875 -4.96875 L 4.828125 -4.96875 C 5.523438 -4.96875 6.0625 -5.132812 6.4375 -5.46875 C 6.8125 -5.800781 7 -6.273438 7 -6.890625 C 7 -7.484375 6.8125 -7.957031 6.4375 -8.3125 C 6.0625 -8.675781 5.550781 -8.863281 4.90625 -8.875 L 2.46875 -8.875 Z M 2.46875 -4.96875 "/></g></g></g><g fill="#ffffff" fill-opacity="1"><g transform="translate(340.46159, 94.350021)"><g><path d="M 5.53125 0 C 5.457031 -0.144531 5.394531 -0.40625 5.34375 -0.78125 C 4.757812 -0.164062 4.054688 0.140625 3.234375 0.140625 C 2.503906 0.140625 1.90625 -0.0625 1.4375 -0.46875 C 0.976562 -0.882812 0.75 -1.410156 0.75 -2.046875 C 0.75 -2.816406 1.039062 -3.414062 1.625 -3.84375 C 2.207031 -4.269531 3.03125 -4.484375 4.09375 -4.484375 L 5.328125 -4.484375 L 5.328125 -5.0625 C 5.328125 -5.507812 5.191406 -5.863281 4.921875 -6.125 C 4.660156 -6.382812 4.273438 -6.515625 3.765625 -6.515625 C 3.304688 -6.515625 2.925781 -6.398438 2.625 -6.171875 C 2.320312 -5.941406 2.171875 -5.664062 2.171875 -5.34375 L 0.890625 -5.34375 C 0.890625 -5.71875 1.019531 -6.078125 1.28125 -6.421875 C 1.550781 -6.765625 1.910156 -7.035156 2.359375 -7.234375 C 2.804688 -7.429688 3.296875 -7.53125 3.828125 -7.53125 C 4.679688 -7.53125 5.347656 -7.316406 5.828125 -6.890625 C 6.316406 -6.460938 6.570312 -5.878906 6.59375 -5.140625 L 6.59375 -1.734375 C 6.59375 -1.054688 6.675781 -0.515625 6.84375 -0.109375 L 6.84375 0 Z M 3.421875 -0.96875 C 3.816406 -0.96875 4.191406 -1.066406 4.546875 -1.265625 C 4.910156 -1.472656 5.171875 -1.742188 5.328125 -2.078125 L 5.328125 -3.59375 L 4.328125 -3.59375 C 2.785156 -3.59375 2.015625 -3.140625 2.015625 -2.234375 C 2.015625 -1.835938 2.144531 -1.523438 2.40625 -1.296875 C 2.664062 -1.078125 3.003906 -0.96875 3.421875 -0.96875 Z M 3.421875 -0.96875 "/></g></g></g><g fill="#ffffff" fill-opacity="1"><g transform="translate(348.072575, 94.350021)"><g><path d="M 4.53125 -6.265625 C 4.34375 -6.296875 4.132812 -6.3125 3.90625 -6.3125 C 3.082031 -6.3125 2.519531 -5.957031 2.21875 -5.25 L 2.21875 0 L 0.953125 0 L 0.953125 -7.390625 L 2.1875 -7.390625 L 2.203125 -6.546875 C 2.617188 -7.203125 3.207031 -7.53125 3.96875 -7.53125 C 4.21875 -7.53125 4.40625 -7.5 4.53125 -7.4375 Z M 4.53125 -6.265625 "/></g></g></g><g fill="#ffffff" fill-opacity="1"><g transform="translate(352.807236, 94.350021)"><g><path d="M 5.265625 -1.96875 C 5.265625 -2.300781 5.132812 -2.5625 4.875 -2.75 C 4.613281 -2.945312 4.164062 -3.113281 3.53125 -3.25 C 2.894531 -3.382812 2.382812 -3.546875 2 -3.734375 C 1.625 -3.929688 1.347656 -4.160156 1.171875 -4.421875 C 0.992188 -4.679688 0.90625 -4.992188 0.90625 -5.359375 C 0.90625 -5.972656 1.160156 -6.488281 1.671875 -6.90625 C 2.179688 -7.320312 2.835938 -7.53125 3.640625 -7.53125 C 4.472656 -7.53125 5.148438 -7.3125 5.671875 -6.875 C 6.191406 -6.445312 6.453125 -5.894531 6.453125 -5.21875 L 5.1875 -5.21875 C 5.1875 -5.570312 5.039062 -5.875 4.75 -6.125 C 4.457031 -6.375 4.085938 -6.5 3.640625 -6.5 C 3.179688 -6.5 2.820312 -6.394531 2.5625 -6.1875 C 2.300781 -5.988281 2.171875 -5.726562 2.171875 -5.40625 C 2.171875 -5.101562 2.289062 -4.875 2.53125 -4.71875 C 2.769531 -4.5625 3.203125 -4.410156 3.828125 -4.265625 C 4.460938 -4.128906 4.976562 -3.960938 5.375 -3.765625 C 5.769531 -3.566406 6.0625 -3.328125 6.25 -3.046875 C 6.4375 -2.773438 6.53125 -2.441406 6.53125 -2.046875 C 6.53125 -1.390625 6.265625 -0.859375 5.734375 -0.453125 C 5.203125 -0.0546875 4.515625 0.140625 3.671875 0.140625 C 3.085938 0.140625 2.566406 0.0351562 2.109375 -0.171875 C 1.648438 -0.390625 1.289062 -0.6875 1.03125 -1.0625 C 0.78125 -1.4375 0.65625 -1.84375 0.65625 -2.28125 L 1.921875 -2.28125 C 1.941406 -1.851562 2.109375 -1.515625 2.421875 -1.265625 C 2.742188 -1.015625 3.160156 -0.890625 3.671875 -0.890625 C 4.148438 -0.890625 4.535156 -0.988281 4.828125 -1.1875 C 5.117188 -1.382812 5.265625 -1.644531 5.265625 -1.96875 Z M 5.265625 -1.96875 "/></g></g></g><g fill="#ffffff" fill-opacity="1"><g transform="translate(360.021957, 94.350021)"><g><path d="M 4.03125 0.140625 C 3.019531 0.140625 2.203125 -0.1875 1.578125 -0.84375 C 0.953125 -1.507812 0.640625 -2.394531 0.640625 -3.5 L 0.640625 -3.71875 C 0.640625 -4.457031 0.78125 -5.113281 1.0625 -5.6875 C 1.34375 -6.269531 1.734375 -6.722656 2.234375 -7.046875 C 2.734375 -7.367188 3.28125 -7.53125 3.875 -7.53125 C 4.832031 -7.53125 5.578125 -7.210938 6.109375 -6.578125 C 6.640625 -5.953125 6.90625 -5.046875 6.90625 -3.859375 L 6.90625 -3.34375 L 1.90625 -3.34375 C 1.914062 -2.613281 2.125 -2.019531 2.53125 -1.5625 C 2.945312 -1.113281 3.46875 -0.890625 4.09375 -0.890625 C 4.539062 -0.890625 4.914062 -0.976562 5.21875 -1.15625 C 5.53125 -1.34375 5.804688 -1.585938 6.046875 -1.890625 L 6.8125 -1.296875 C 6.195312 -0.335938 5.269531 0.140625 4.03125 0.140625 Z M 3.875 -6.5 C 3.363281 -6.5 2.929688 -6.3125 2.578125 -5.9375 C 2.234375 -5.5625 2.019531 -5.039062 1.9375 -4.375 L 5.640625 -4.375 L 5.640625 -4.46875 C 5.609375 -5.113281 5.4375 -5.613281 5.125 -5.96875 C 4.8125 -6.320312 4.394531 -6.5 3.875 -6.5 Z M 3.875 -6.5 "/></g></g></g><g fill="#ffffff" fill-opacity="1"><g transform="translate(367.43481, 94.350021)"><g/></g></g><g fill="#ffffff" fill-opacity="1"><g transform="translate(370.898696, 94.350021)"><g><path d="M 8.8125 0 L 7.484375 0 L 7.484375 -4.59375 L 2.46875 -4.59375 L 2.46875 0 L 1.15625 0 L 1.15625 -9.953125 L 2.46875 -9.953125 L 2.46875 -5.671875 L 7.484375 -5.671875 L 7.484375 -9.953125 L 8.8125 -9.953125 Z M 8.8125 0 "/></g></g></g><g fill="#ffffff" fill-opacity="1"><g transform="translate(380.873595, 94.350021)"><g><path d="M 8.03125 -8.875 L 4.828125 -8.875 L 4.828125 0 L 3.53125 0 L 3.53125 -8.875 L 0.328125 -8.875 L 0.328125 -9.953125 L 8.03125 -9.953125 Z M 8.03125 -8.875 "/></g></g></g><g fill="#ffffff" fill-opacity="1"><g transform="translate(389.222449, 94.350021)"><g><path d="M 2.84375 -9.953125 L 6.109375 -1.828125 L 9.359375 -9.953125 L 11.0625 -9.953125 L 11.0625 0 L 9.75 0 L 9.75 -3.875 L 9.875 -8.0625 L 6.609375 0 L 5.59375 0 L 2.34375 -8.046875 L 2.46875 -3.875 L 2.46875 0 L 1.15625 0 L 1.15625 -9.953125 Z M 2.84375 -9.953125 "/></g></g></g><g fill="#ffffff" fill-opacity="1"><g transform="translate(401.438284, 94.350021)"><g><path d="M 2.46875 -1.078125 L 7.1875 -1.078125 L 7.1875 0 L 1.15625 0 L 1.15625 -9.953125 L 2.46875 -9.953125 Z M 2.46875 -1.078125 "/></g></g></g><g clip-path="url(#c785660565)"><path fill="#8b2222" d="M 283.914062 174.957031 L 456.691406 174.957031 L 456.691406 239.0625 L 283.914062 239.0625 Z M 283.914062 174.957031 " fill-opacity="1" fill-rule="nonzero"/></g><g fill="#ffffff" fill-opacity="1"><g transform="translate(330.368863, 211.707945)"><g><path d="M 2.46875 -3.890625 L 2.46875 0 L 1.15625 0 L 1.15625 -9.953125 L 4.828125 -9.953125 C 5.910156 -9.953125 6.757812 -9.671875 7.375 -9.109375 C 8 -8.554688 8.3125 -7.820312 8.3125 -6.90625 C 8.3125 -5.945312 8.007812 -5.203125 7.40625 -4.671875 C 6.800781 -4.148438 5.9375 -3.890625 4.8125 -3.890625 Z M 2.46875 -4.96875 L 4.828125 -4.96875 C 5.523438 -4.96875 6.0625 -5.132812 6.4375 -5.46875 C 6.8125 -5.800781 7 -6.273438 7 -6.890625 C 7 -7.484375 6.8125 -7.957031 6.4375 -8.3125 C 6.0625 -8.675781 5.550781 -8.863281 4.90625 -8.875 L 2.46875 -8.875 Z M 2.46875 -4.96875 "/></g></g></g><g fill="#ffffff" fill-opacity="1"><g transform="translate(339.195966, 211.707945)"><g><path d="M 4.53125 -6.265625 C 4.34375 -6.296875 4.132812 -6.3125 3.90625 -6.3125 C 3.082031 -6.3125 2.519531 -5.957031 2.21875 -5.25 L 2.21875 0 L 0.953125 0 L 0.953125 -7.390625 L 2.1875 -7.390625 L 2.203125 -6.546875 C 2.617188 -7.203125 3.207031 -7.53125 3.96875 -7.53125 C 4.21875 -7.53125 4.40625 -7.5 4.53125 -7.4375 Z M 4.53125 -6.265625 "/></g></g></g><g fill="#ffffff" fill-opacity="1"><g transform="translate(343.930626, 211.707945)"><g><path d="M 0.625 -3.765625 C 0.625 -4.492188 0.765625 -5.144531 1.046875 -5.71875 C 1.335938 -6.300781 1.734375 -6.75 2.234375 -7.0625 C 2.742188 -7.375 3.328125 -7.53125 3.984375 -7.53125 C 4.984375 -7.53125 5.796875 -7.179688 6.421875 -6.484375 C 7.046875 -5.785156 7.359375 -4.859375 7.359375 -3.703125 L 7.359375 -3.609375 C 7.359375 -2.890625 7.21875 -2.242188 6.9375 -1.671875 C 6.664062 -1.109375 6.269531 -0.664062 5.75 -0.34375 C 5.238281 -0.0195312 4.65625 0.140625 4 0.140625 C 2.988281 0.140625 2.171875 -0.207031 1.546875 -0.90625 C 0.929688 -1.601562 0.625 -2.523438 0.625 -3.671875 Z M 1.890625 -3.609375 C 1.890625 -2.796875 2.078125 -2.140625 2.453125 -1.640625 C 2.835938 -1.140625 3.351562 -0.890625 4 -0.890625 C 4.632812 -0.890625 5.140625 -1.140625 5.515625 -1.640625 C 5.898438 -2.148438 6.09375 -2.859375 6.09375 -3.765625 C 6.09375 -4.578125 5.898438 -5.234375 5.515625 -5.734375 C 5.128906 -6.242188 4.617188 -6.5 3.984375 -6.5 C 3.359375 -6.5 2.851562 -6.25 2.46875 -5.75 C 2.082031 -5.25 1.890625 -4.535156 1.890625 -3.609375 Z M 1.890625 -3.609375 "/></g></g></g><g fill="#ffffff" fill-opacity="1"><g transform="translate(351.910546, 211.707945)"><g><path d="M 3.921875 -0.890625 C 4.367188 -0.890625 4.757812 -1.023438 5.09375 -1.296875 C 5.4375 -1.578125 5.628906 -1.921875 5.671875 -2.328125 L 6.859375 -2.328125 C 6.835938 -1.910156 6.691406 -1.507812 6.421875 -1.125 C 6.148438 -0.738281 5.789062 -0.429688 5.34375 -0.203125 C 4.894531 0.0234375 4.421875 0.140625 3.921875 0.140625 C 2.910156 0.140625 2.109375 -0.191406 1.515625 -0.859375 C 0.921875 -1.535156 0.625 -2.457031 0.625 -3.625 L 0.625 -3.84375 C 0.625 -4.5625 0.753906 -5.203125 1.015625 -5.765625 C 1.285156 -6.328125 1.664062 -6.757812 2.15625 -7.0625 C 2.65625 -7.375 3.242188 -7.53125 3.921875 -7.53125 C 4.742188 -7.53125 5.429688 -7.28125 5.984375 -6.78125 C 6.535156 -6.289062 6.828125 -5.648438 6.859375 -4.859375 L 5.671875 -4.859375 C 5.628906 -5.335938 5.445312 -5.726562 5.125 -6.03125 C 4.800781 -6.34375 4.398438 -6.5 3.921875 -6.5 C 3.273438 -6.5 2.773438 -6.265625 2.421875 -5.796875 C 2.066406 -5.335938 1.890625 -4.671875 1.890625 -3.796875 L 1.890625 -3.5625 C 1.890625 -2.707031 2.066406 -2.046875 2.421875 -1.578125 C 2.773438 -1.117188 3.273438 -0.890625 3.921875 -0.890625 Z M 3.921875 -0.890625 "/></g></g></g><g fill="#ffffff" fill-opacity="1"><g transform="translate(359.234581, 211.707945)"><g><path d="M 4.03125 0.140625 C 3.019531 0.140625 2.203125 -0.1875 1.578125 -0.84375 C 0.953125 -1.507812 0.640625 -2.394531 0.640625 -3.5 L 0.640625 -3.71875 C 0.640625 -4.457031 0.78125 -5.113281 1.0625 -5.6875 C 1.34375 -6.269531 1.734375 -6.722656 2.234375 -7.046875 C 2.734375 -7.367188 3.28125 -7.53125 3.875 -7.53125 C 4.832031 -7.53125 5.578125 -7.210938 6.109375 -6.578125 C 6.640625 -5.953125 6.90625 -5.046875 6.90625 -3.859375 L 6.90625 -3.34375 L 1.90625 -3.34375 C 1.914062 -2.613281 2.125 -2.019531 2.53125 -1.5625 C 2.945312 -1.113281 3.46875 -0.890625 4.09375 -0.890625 C 4.539062 -0.890625 4.914062 -0.976562 5.21875 -1.15625 C 5.53125 -1.34375 5.804688 -1.585938 6.046875 -1.890625 L 6.8125 -1.296875 C 6.195312 -0.335938 5.269531 0.140625 4.03125 0.140625 Z M 3.875 -6.5 C 3.363281 -6.5 2.929688 -6.3125 2.578125 -5.9375 C 2.234375 -5.5625 2.019531 -5.039062 1.9375 -4.375 L 5.640625 -4.375 L 5.640625 -4.46875 C 5.609375 -5.113281 5.4375 -5.613281 5.125 -5.96875 C 4.8125 -6.320312 4.394531 -6.5 3.875 -6.5 Z M 3.875 -6.5 "/></g></g></g><g fill="#ffffff" fill-opacity="1"><g transform="translate(366.647434, 211.707945)"><g><path d="M 5.265625 -1.96875 C 5.265625 -2.300781 5.132812 -2.5625 4.875 -2.75 C 4.613281 -2.945312 4.164062 -3.113281 3.53125 -3.25 C 2.894531 -3.382812 2.382812 -3.546875 2 -3.734375 C 1.625 -3.929688 1.347656 -4.160156 1.171875 -4.421875 C 0.992188 -4.679688 0.90625 -4.992188 0.90625 -5.359375 C 0.90625 -5.972656 1.160156 -6.488281 1.671875 -6.90625 C 2.179688 -7.320312 2.835938 -7.53125 3.640625 -7.53125 C 4.472656 -7.53125 5.148438 -7.3125 5.671875 -6.875 C 6.191406 -6.445312 6.453125 -5.894531 6.453125 -5.21875 L 5.1875 -5.21875 C 5.1875 -5.570312 5.039062 -5.875 4.75 -6.125 C 4.457031 -6.375 4.085938 -6.5 3.640625 -6.5 C 3.179688 -6.5 2.820312 -6.394531 2.5625 -6.1875 C 2.300781 -5.988281 2.171875 -5.726562 2.171875 -5.40625 C 2.171875 -5.101562 2.289062 -4.875 2.53125 -4.71875 C 2.769531 -4.5625 3.203125 -4.410156 3.828125 -4.265625 C 4.460938 -4.128906 4.976562 -3.960938 5.375 -3.765625 C 5.769531 -3.566406 6.0625 -3.328125 6.25 -3.046875 C 6.4375 -2.773438 6.53125 -2.441406 6.53125 -2.046875 C 6.53125 -1.390625 6.265625 -0.859375 5.734375 -0.453125 C 5.203125 -0.0546875 4.515625 0.140625 3.671875 0.140625 C 3.085938 0.140625 2.566406 0.0351562 2.109375 -0.171875 C 1.648438 -0.390625 1.289062 -0.6875 1.03125 -1.0625 C 0.78125 -1.4375 0.65625 -1.84375 0.65625 -2.28125 L 1.921875 -2.28125 C 1.941406 -1.851562 2.109375 -1.515625 2.421875 -1.265625 C 2.742188 -1.015625 3.160156 -0.890625 3.671875 -0.890625 C 4.148438 -0.890625 4.535156 -0.988281 4.828125 -1.1875 C 5.117188 -1.382812 5.265625 -1.644531 5.265625 -1.96875 Z M 5.265625 -1.96875 "/></g></g></g><g fill="#ffffff" fill-opacity="1"><g transform="translate(373.862155, 211.707945)"><g><path d="M 5.265625 -1.96875 C 5.265625 -2.300781 5.132812 -2.5625 4.875 -2.75 C 4.613281 -2.945312 4.164062 -3.113281 3.53125 -3.25 C 2.894531 -3.382812 2.382812 -3.546875 2 -3.734375 C 1.625 -3.929688 1.347656 -4.160156 1.171875 -4.421875 C 0.992188 -4.679688 0.90625 -4.992188 0.90625 -5.359375 C 0.90625 -5.972656 1.160156 -6.488281 1.671875 -6.90625 C 2.179688 -7.320312 2.835938 -7.53125 3.640625 -7.53125 C 4.472656 -7.53125 5.148438 -7.3125 5.671875 -6.875 C 6.191406 -6.445312 6.453125 -5.894531 6.453125 -5.21875 L 5.1875 -5.21875 C 5.1875 -5.570312 5.039062 -5.875 4.75 -6.125 C 4.457031 -6.375 4.085938 -6.5 3.640625 -6.5 C 3.179688 -6.5 2.820312 -6.394531 2.5625 -6.1875 C 2.300781 -5.988281 2.171875 -5.726562 2.171875 -5.40625 C 2.171875 -5.101562 2.289062 -4.875 2.53125 -4.71875 C 2.769531 -4.5625 3.203125 -4.410156 3.828125 -4.265625 C 4.460938 -4.128906 4.976562 -3.960938 5.375 -3.765625 C 5.769531 -3.566406 6.0625 -3.328125 6.25 -3.046875 C 6.4375 -2.773438 6.53125 -2.441406 6.53125 -2.046875 C 6.53125 -1.390625 6.265625 -0.859375 5.734375 -0.453125 C 5.203125 -0.0546875 4.515625 0.140625 3.671875 0.140625 C 3.085938 0.140625 2.566406 0.0351562 2.109375 -0.171875 C 1.648438 -0.390625 1.289062 -0.6875 1.03125 -1.0625 C 0.78125 -1.4375 0.65625 -1.84375 0.65625 -2.28125 L 1.921875 -2.28125 C 1.941406 -1.851562 2.109375 -1.515625 2.421875 -1.265625 C 2.742188 -1.015625 3.160156 -0.890625 3.671875 -0.890625 C 4.148438 -0.890625 4.535156 -0.988281 4.828125 -1.1875 C 5.117188 -1.382812 5.265625 -1.644531 5.265625 -1.96875 Z M 5.265625 -1.96875 "/></g></g></g><g fill="#ffffff" fill-opacity="1"><g transform="translate(381.076877, 211.707945)"><g/></g></g><g fill="#ffffff" fill-opacity="1"><g transform="translate(384.540763, 211.707945)"><g><path d="M 8.484375 -3.15625 C 8.359375 -2.101562 7.96875 -1.289062 7.3125 -0.71875 C 6.65625 -0.144531 5.785156 0.140625 4.703125 0.140625 C 3.523438 0.140625 2.582031 -0.28125 1.875 -1.125 C 1.164062 -1.96875 0.8125 -3.097656 0.8125 -4.515625 L 0.8125 -5.46875 C 0.8125 -6.394531 0.976562 -7.207031 1.3125 -7.90625 C 1.644531 -8.613281 2.113281 -9.15625 2.71875 -9.53125 C 3.320312 -9.90625 4.019531 -10.09375 4.8125 -10.09375 C 5.875 -10.09375 6.722656 -9.796875 7.359375 -9.203125 C 7.992188 -8.609375 8.367188 -7.789062 8.484375 -6.75 L 7.15625 -6.75 C 7.039062 -7.539062 6.789062 -8.113281 6.40625 -8.46875 C 6.03125 -8.832031 5.5 -9.015625 4.8125 -9.015625 C 3.976562 -9.015625 3.320312 -8.703125 2.84375 -8.078125 C 2.375 -7.460938 2.140625 -6.582031 2.140625 -5.4375 L 2.140625 -4.46875 C 2.140625 -3.382812 2.363281 -2.523438 2.8125 -1.890625 C 3.257812 -1.253906 3.890625 -0.9375 4.703125 -0.9375 C 5.429688 -0.9375 5.988281 -1.097656 6.375 -1.421875 C 6.769531 -1.753906 7.03125 -2.332031 7.15625 -3.15625 Z M 8.484375 -3.15625 "/></g></g></g><g fill="#ffffff" fill-opacity="1"><g transform="translate(393.647982, 211.707945)"><g><path d="M 4.09375 -4.4375 C 2.96875 -4.757812 2.144531 -5.15625 1.625 -5.625 C 1.113281 -6.101562 0.859375 -6.6875 0.859375 -7.375 C 0.859375 -8.15625 1.171875 -8.800781 1.796875 -9.3125 C 2.421875 -9.832031 3.238281 -10.09375 4.25 -10.09375 C 4.925781 -10.09375 5.53125 -9.957031 6.0625 -9.6875 C 6.601562 -9.425781 7.019531 -9.0625 7.3125 -8.59375 C 7.613281 -8.132812 7.765625 -7.628906 7.765625 -7.078125 L 6.4375 -7.078125 C 6.4375 -7.679688 6.242188 -8.15625 5.859375 -8.5 C 5.484375 -8.84375 4.945312 -9.015625 4.25 -9.015625 C 3.601562 -9.015625 3.097656 -8.867188 2.734375 -8.578125 C 2.367188 -8.296875 2.1875 -7.898438 2.1875 -7.390625 C 2.1875 -6.984375 2.359375 -6.640625 2.703125 -6.359375 C 3.046875 -6.085938 3.628906 -5.832031 4.453125 -5.59375 C 5.285156 -5.363281 5.9375 -5.109375 6.40625 -4.828125 C 6.875 -4.546875 7.21875 -4.21875 7.4375 -3.84375 C 7.664062 -3.46875 7.78125 -3.03125 7.78125 -2.53125 C 7.78125 -1.71875 7.460938 -1.066406 6.828125 -0.578125 C 6.203125 -0.0976562 5.363281 0.140625 4.3125 0.140625 C 3.625 0.140625 2.984375 0.0078125 2.390625 -0.25 C 1.804688 -0.519531 1.351562 -0.878906 1.03125 -1.328125 C 0.707031 -1.785156 0.546875 -2.304688 0.546875 -2.890625 L 1.859375 -2.890625 C 1.859375 -2.285156 2.082031 -1.804688 2.53125 -1.453125 C 2.976562 -1.109375 3.570312 -0.9375 4.3125 -0.9375 C 5.007812 -0.9375 5.539062 -1.078125 5.90625 -1.359375 C 6.269531 -1.640625 6.453125 -2.023438 6.453125 -2.515625 C 6.453125 -3.003906 6.28125 -3.378906 5.9375 -3.640625 C 5.601562 -3.910156 4.988281 -4.175781 4.09375 -4.4375 Z M 4.09375 -4.4375 "/></g></g></g><g fill="#ffffff" fill-opacity="1"><g transform="translate(401.949011, 211.707945)"><g><path d="M 4.09375 -4.4375 C 2.96875 -4.757812 2.144531 -5.15625 1.625 -5.625 C 1.113281 -6.101562 0.859375 -6.6875 0.859375 -7.375 C 0.859375 -8.15625 1.171875 -8.800781 1.796875 -9.3125 C 2.421875 -9.832031 3.238281 -10.09375 4.25 -10.09375 C 4.925781 -10.09375 5.53125 -9.957031 6.0625 -9.6875 C 6.601562 -9.425781 7.019531 -9.0625 7.3125 -8.59375 C 7.613281 -8.132812 7.765625 -7.628906 7.765625 -7.078125 L 6.4375 -7.078125 C 6.4375 -7.679688 6.242188 -8.15625 5.859375 -8.5 C 5.484375 -8.84375 4.945312 -9.015625 4.25 -9.015625 C 3.601562 -9.015625 3.097656 -8.867188 2.734375 -8.578125 C 2.367188 -8.296875 2.1875 -7.898438 2.1875 -7.390625 C 2.1875 -6.984375 2.359375 -6.640625 2.703125 -6.359375 C 3.046875 -6.085938 3.628906 -5.832031 4.453125 -5.59375 C 5.285156 -5.363281 5.9375 -5.109375 6.40625 -4.828125 C 6.875 -4.546875 7.21875 -4.21875 7.4375 -3.84375 C 7.664062 -3.46875 7.78125 -3.03125 7.78125 -2.53125 C 7.78125 -1.71875 7.460938 -1.066406 6.828125 -0.578125 C 6.203125 -0.0976562 5.363281 0.140625 4.3125 0.140625 C 3.625 0.140625 2.984375 0.0078125 2.390625 -0.25 C 1.804688 -0.519531 1.351562 -0.878906 1.03125 -1.328125 C 0.707031 -1.785156 0.546875 -2.304688 0.546875 -2.890625 L 1.859375 -2.890625 C 1.859375 -2.285156 2.082031 -1.804688 2.53125 -1.453125 C 2.976562 -1.109375 3.570312 -0.9375 4.3125 -0.9375 C 5.007812 -0.9375 5.539062 -1.078125 5.90625 -1.359375 C 6.269531 -1.640625 6.453125 -2.023438 6.453125 -2.515625 C 6.453125 -3.003906 6.28125 -3.378906 5.9375 -3.640625 C 5.601562 -3.910156 4.988281 -4.175781 4.09375 -4.4375 Z M 4.09375 -4.4375 "/></g></g></g><g clip-path="url(#fd4d83fe04)"><path fill="#8b2222" d="M 283.914062 301.636719 L 456.691406 301.636719 L 456.691406 365.738281 L 283.914062 365.738281 Z M 283.914062 301.636719 " fill-opacity="1" fill-rule="nonzero"/></g><g fill="#ffffff" fill-opacity="1"><g transform="translate(335.900113, 338.385035)"><g><path d="M 6.78125 -4.59375 L 2.46875 -4.59375 L 2.46875 -1.078125 L 7.484375 -1.078125 L 7.484375 0 L 1.15625 0 L 1.15625 -9.953125 L 7.40625 -9.953125 L 7.40625 -8.875 L 2.46875 -8.875 L 2.46875 -5.671875 L 6.78125 -5.671875 Z M 6.78125 -4.59375 "/></g></g></g><g fill="#ffffff" fill-opacity="1"><g transform="translate(343.852704, 338.385035)"><g><path d="M 3.4375 -4.703125 L 5.078125 -7.390625 L 6.5625 -7.390625 L 4.140625 -3.734375 L 6.625 0 L 5.171875 0 L 3.453125 -2.765625 L 1.75 0 L 0.28125 0 L 2.78125 -3.734375 L 0.359375 -7.390625 L 1.8125 -7.390625 Z M 3.4375 -4.703125 "/></g></g></g><g fill="#ffffff" fill-opacity="1"><g transform="translate(350.787308, 338.385035)"><g><path d="M 4.03125 0.140625 C 3.019531 0.140625 2.203125 -0.1875 1.578125 -0.84375 C 0.953125 -1.507812 0.640625 -2.394531 0.640625 -3.5 L 0.640625 -3.71875 C 0.640625 -4.457031 0.78125 -5.113281 1.0625 -5.6875 C 1.34375 -6.269531 1.734375 -6.722656 2.234375 -7.046875 C 2.734375 -7.367188 3.28125 -7.53125 3.875 -7.53125 C 4.832031 -7.53125 5.578125 -7.210938 6.109375 -6.578125 C 6.640625 -5.953125 6.90625 -5.046875 6.90625 -3.859375 L 6.90625 -3.34375 L 1.90625 -3.34375 C 1.914062 -2.613281 2.125 -2.019531 2.53125 -1.5625 C 2.945312 -1.113281 3.46875 -0.890625 4.09375 -0.890625 C 4.539062 -0.890625 4.914062 -0.976562 5.21875 -1.15625 C 5.53125 -1.34375 5.804688 -1.585938 6.046875 -1.890625 L 6.8125 -1.296875 C 6.195312 -0.335938 5.269531 0.140625 4.03125 0.140625 Z M 3.875 -6.5 C 3.363281 -6.5 2.929688 -6.3125 2.578125 -5.9375 C 2.234375 -5.5625 2.019531 -5.039062 1.9375 -4.375 L 5.640625 -4.375 L 5.640625 -4.46875 C 5.609375 -5.113281 5.4375 -5.613281 5.125 -5.96875 C 4.8125 -6.320312 4.394531 -6.5 3.875 -6.5 Z M 3.875 -6.5 "/></g></g></g><g fill="#ffffff" fill-opacity="1"><g transform="translate(358.200161, 338.385035)"><g><path d="M 3.921875 -0.890625 C 4.367188 -0.890625 4.757812 -1.023438 5.09375 -1.296875 C 5.4375 -1.578125 5.628906 -1.921875 5.671875 -2.328125 L 6.859375 -2.328125 C 6.835938 -1.910156 6.691406 -1.507812 6.421875 -1.125 C 6.148438 -0.738281 5.789062 -0.429688 5.34375 -0.203125 C 4.894531 0.0234375 4.421875 0.140625 3.921875 0.140625 C 2.910156 0.140625 2.109375 -0.191406 1.515625 -0.859375 C 0.921875 -1.535156 0.625 -2.457031 0.625 -3.625 L 0.625 -3.84375 C 0.625 -4.5625 0.753906 -5.203125 1.015625 -5.765625 C 1.285156 -6.328125 1.664062 -6.757812 2.15625 -7.0625 C 2.65625 -7.375 3.242188 -7.53125 3.921875 -7.53125 C 4.742188 -7.53125 5.429688 -7.28125 5.984375 -6.78125 C 6.535156 -6.289062 6.828125 -5.648438 6.859375 -4.859375 L 5.671875 -4.859375 C 5.628906 -5.335938 5.445312 -5.726562 5.125 -6.03125 C 4.800781 -6.34375 4.398438 -6.5 3.921875 -6.5 C 3.273438 -6.5 2.773438 -6.265625 2.421875 -5.796875 C 2.066406 -5.335938 1.890625 -4.671875 1.890625 -3.796875 L 1.890625 -3.5625 C 1.890625 -2.707031 2.066406 -2.046875 2.421875 -1.578125 C 2.773438 -1.117188 3.273438 -0.890625 3.921875 -0.890625 Z M 3.921875 -0.890625 "/></g></g></g><g fill="#ffffff" fill-opacity="1"><g transform="translate(365.524196, 338.385035)"><g><path d="M 5.53125 -0.734375 C 5.03125 -0.148438 4.304688 0.140625 3.359375 0.140625 C 2.566406 0.140625 1.960938 -0.0859375 1.546875 -0.546875 C 1.140625 -1.003906 0.9375 -1.679688 0.9375 -2.578125 L 0.9375 -7.390625 L 2.1875 -7.390625 L 2.1875 -2.625 C 2.1875 -1.5 2.644531 -0.9375 3.5625 -0.9375 C 4.53125 -0.9375 5.171875 -1.296875 5.484375 -2.015625 L 5.484375 -7.390625 L 6.75 -7.390625 L 6.75 0 L 5.546875 0 Z M 5.53125 -0.734375 "/></g></g></g><g fill="#ffffff" fill-opacity="1"><g transform="translate(373.237663, 338.385035)"><g><path d="M 2.671875 -9.1875 L 2.671875 -7.390625 L 4.046875 -7.390625 L 4.046875 -6.421875 L 2.671875 -6.421875 L 2.671875 -1.828125 C 2.671875 -1.535156 2.734375 -1.3125 2.859375 -1.15625 C 2.984375 -1.007812 3.191406 -0.9375 3.484375 -0.9375 C 3.628906 -0.9375 3.832031 -0.96875 4.09375 -1.03125 L 4.09375 0 C 3.757812 0.09375 3.4375 0.140625 3.125 0.140625 C 2.550781 0.140625 2.117188 -0.03125 1.828125 -0.375 C 1.546875 -0.71875 1.40625 -1.203125 1.40625 -1.828125 L 1.40625 -6.421875 L 0.0625 -6.421875 L 0.0625 -7.390625 L 1.40625 -7.390625 L 1.40625 -9.1875 Z M 2.671875 -9.1875 "/></g></g></g><g fill="#ffffff" fill-opacity="1"><g transform="translate(377.808353, 338.385035)"><g><path d="M 4.03125 0.140625 C 3.019531 0.140625 2.203125 -0.1875 1.578125 -0.84375 C 0.953125 -1.507812 0.640625 -2.394531 0.640625 -3.5 L 0.640625 -3.71875 C 0.640625 -4.457031 0.78125 -5.113281 1.0625 -5.6875 C 1.34375 -6.269531 1.734375 -6.722656 2.234375 -7.046875 C 2.734375 -7.367188 3.28125 -7.53125 3.875 -7.53125 C 4.832031 -7.53125 5.578125 -7.210938 6.109375 -6.578125 C 6.640625 -5.953125 6.90625 -5.046875 6.90625 -3.859375 L 6.90625 -3.34375 L 1.90625 -3.34375 C 1.914062 -2.613281 2.125 -2.019531 2.53125 -1.5625 C 2.945312 -1.113281 3.46875 -0.890625 4.09375 -0.890625 C 4.539062 -0.890625 4.914062 -0.976562 5.21875 -1.15625 C 5.53125 -1.34375 5.804688 -1.585938 6.046875 -1.890625 L 6.8125 -1.296875 C 6.195312 -0.335938 5.269531 0.140625 4.03125 0.140625 Z M 3.875 -6.5 C 3.363281 -6.5 2.929688 -6.3125 2.578125 -5.9375 C 2.234375 -5.5625 2.019531 -5.039062 1.9375 -4.375 L 5.640625 -4.375 L 5.640625 -4.46875 C 5.609375 -5.113281 5.4375 -5.613281 5.125 -5.96875 C 4.8125 -6.320312 4.394531 -6.5 3.875 -6.5 Z M 3.875 -6.5 "/></g></g></g><g fill="#ffffff" fill-opacity="1"><g transform="translate(385.221205, 338.385035)"><g/></g></g><g fill="#ffffff" fill-opacity="1"><g transform="translate(388.685092, 338.385035)"><g><path d="M 5.328125 -9.953125 L 6.640625 -9.953125 L 6.640625 -2.90625 C 6.640625 -1.957031 6.351562 -1.210938 5.78125 -0.671875 C 5.207031 -0.128906 4.445312 0.140625 3.5 0.140625 C 2.507812 0.140625 1.738281 -0.109375 1.1875 -0.609375 C 0.632812 -1.117188 0.359375 -1.832031 0.359375 -2.75 L 1.671875 -2.75 C 1.671875 -2.175781 1.828125 -1.726562 2.140625 -1.40625 C 2.453125 -1.09375 2.90625 -0.9375 3.5 -0.9375 C 4.039062 -0.9375 4.476562 -1.109375 4.8125 -1.453125 C 5.144531 -1.796875 5.316406 -2.273438 5.328125 -2.890625 Z M 5.328125 -9.953125 "/></g></g></g><g fill="#ffffff" fill-opacity="1"><g transform="translate(396.40539, 338.385035)"><g><path d="M 4.09375 -4.4375 C 2.96875 -4.757812 2.144531 -5.15625 1.625 -5.625 C 1.113281 -6.101562 0.859375 -6.6875 0.859375 -7.375 C 0.859375 -8.15625 1.171875 -8.800781 1.796875 -9.3125 C 2.421875 -9.832031 3.238281 -10.09375 4.25 -10.09375 C 4.925781 -10.09375 5.53125 -9.957031 6.0625 -9.6875 C 6.601562 -9.425781 7.019531 -9.0625 7.3125 -8.59375 C 7.613281 -8.132812 7.765625 -7.628906 7.765625 -7.078125 L 6.4375 -7.078125 C 6.4375 -7.679688 6.242188 -8.15625 5.859375 -8.5 C 5.484375 -8.84375 4.945312 -9.015625 4.25 -9.015625 C 3.601562 -9.015625 3.097656 -8.867188 2.734375 -8.578125 C 2.367188 -8.296875 2.1875 -7.898438 2.1875 -7.390625 C 2.1875 -6.984375 2.359375 -6.640625 2.703125 -6.359375 C 3.046875 -6.085938 3.628906 -5.832031 4.453125 -5.59375 C 5.285156 -5.363281 5.9375 -5.109375 6.40625 -4.828125 C 6.875 -4.546875 7.21875 -4.21875 7.4375 -3.84375 C 7.664062 -3.46875 7.78125 -3.03125 7.78125 -2.53125 C 7.78125 -1.71875 7.460938 -1.066406 6.828125 -0.578125 C 6.203125 -0.0976562 5.363281 0.140625 4.3125 0.140625 C 3.625 0.140625 2.984375 0.0078125 2.390625 -0.25 C 1.804688 -0.519531 1.351562 -0.878906 1.03125 -1.328125 C 0.707031 -1.785156 0.546875 -2.304688 0.546875 -2.890625 L 1.859375 -2.890625 C 1.859375 -2.285156 2.082031 -1.804688 2.53125 -1.453125 C 2.976562 -1.109375 3.570312 -0.9375 4.3125 -0.9375 C 5.007812 -0.9375 5.539062 -1.078125 5.90625 -1.359375 C 6.269531 -1.640625 6.453125 -2.023438 6.453125 -2.515625 C 6.453125 -3.003906 6.28125 -3.378906 5.9375 -3.640625 C 5.601562 -3.910156 4.988281 -4.175781 4.09375 -4.4375 Z M 4.09375 -4.4375 "/></g></g></g><g clip-path="url(#907065768b)"><path fill="#8b2222" d="M 521.4375 174.957031 L 694.214844 174.957031 L 694.214844 239.0625 L 521.4375 239.0625 Z M 521.4375 174.957031 " fill-opacity="1" fill-rule="nonzero"/></g><g fill="#ffffff" fill-opacity="1"><g transform="translate(569.919181, 211.707945)"><g><path d="M 6.65625 -2.59375 L 2.484375 -2.59375 L 1.546875 0 L 0.1875 0 L 4 -9.953125 L 5.140625 -9.953125 L 8.953125 0 L 7.609375 0 Z M 2.875 -3.671875 L 6.265625 -3.671875 L 4.5625 -8.328125 Z M 2.875 -3.671875 "/></g></g></g><g fill="#ffffff" fill-opacity="1"><g transform="translate(579.046897, 211.707945)"><g><path d="M 7.203125 -3.609375 C 7.203125 -2.484375 6.941406 -1.578125 6.421875 -0.890625 C 5.910156 -0.203125 5.21875 0.140625 4.34375 0.140625 C 3.445312 0.140625 2.738281 -0.144531 2.21875 -0.71875 L 2.21875 2.84375 L 0.953125 2.84375 L 0.953125 -7.390625 L 2.109375 -7.390625 L 2.171875 -6.578125 C 2.691406 -7.210938 3.410156 -7.53125 4.328125 -7.53125 C 5.210938 -7.53125 5.910156 -7.195312 6.421875 -6.53125 C 6.941406 -5.863281 7.203125 -4.929688 7.203125 -3.734375 Z M 5.9375 -3.765625 C 5.9375 -4.597656 5.757812 -5.253906 5.40625 -5.734375 C 5.050781 -6.210938 4.5625 -6.453125 3.9375 -6.453125 C 3.175781 -6.453125 2.601562 -6.113281 2.21875 -5.4375 L 2.21875 -1.90625 C 2.601562 -1.226562 3.179688 -0.890625 3.953125 -0.890625 C 4.566406 -0.890625 5.050781 -1.128906 5.40625 -1.609375 C 5.757812 -2.097656 5.9375 -2.816406 5.9375 -3.765625 Z M 5.9375 -3.765625 "/></g></g></g><g fill="#ffffff" fill-opacity="1"><g transform="translate(586.897005, 211.707945)"><g><path d="M 7.203125 -3.609375 C 7.203125 -2.484375 6.941406 -1.578125 6.421875 -0.890625 C 5.910156 -0.203125 5.21875 0.140625 4.34375 0.140625 C 3.445312 0.140625 2.738281 -0.144531 2.21875 -0.71875 L 2.21875 2.84375 L 0.953125 2.84375 L 0.953125 -7.390625 L 2.109375 -7.390625 L 2.171875 -6.578125 C 2.691406 -7.210938 3.410156 -7.53125 4.328125 -7.53125 C 5.210938 -7.53125 5.910156 -7.195312 6.421875 -6.53125 C 6.941406 -5.863281 7.203125 -4.929688 7.203125 -3.734375 Z M 5.9375 -3.765625 C 5.9375 -4.597656 5.757812 -5.253906 5.40625 -5.734375 C 5.050781 -6.210938 4.5625 -6.453125 3.9375 -6.453125 C 3.175781 -6.453125 2.601562 -6.113281 2.21875 -5.4375 L 2.21875 -1.90625 C 2.601562 -1.226562 3.179688 -0.890625 3.953125 -0.890625 C 4.566406 -0.890625 5.050781 -1.128906 5.40625 -1.609375 C 5.757812 -2.097656 5.9375 -2.816406 5.9375 -3.765625 Z M 5.9375 -3.765625 "/></g></g></g><g fill="#ffffff" fill-opacity="1"><g transform="translate(594.747114, 211.707945)"><g><path d="M 2.328125 0 L 1.0625 0 L 1.0625 -10.5 L 2.328125 -10.5 Z M 2.328125 0 "/></g></g></g><g fill="#ffffff" fill-opacity="1"><g transform="translate(598.142679, 211.707945)"><g><path d="M 3.375 -1.859375 L 5.09375 -7.390625 L 6.453125 -7.390625 L 3.484375 1.140625 C 3.023438 2.367188 2.289062 2.984375 1.28125 2.984375 L 1.046875 2.96875 L 0.578125 2.875 L 0.578125 1.859375 L 0.921875 1.875 C 1.347656 1.875 1.679688 1.785156 1.921875 1.609375 C 2.160156 1.441406 2.359375 1.128906 2.515625 0.671875 L 2.796875 -0.078125 L 0.15625 -7.390625 L 1.53125 -7.390625 Z M 3.375 -1.859375 "/></g></g></g><g fill="#ffffff" fill-opacity="1"><g transform="translate(604.763006, 211.707945)"><g/></g></g><g fill="#ffffff" fill-opacity="1"><g transform="translate(608.226892, 211.707945)"><g><path d="M 4.09375 -4.4375 C 2.96875 -4.757812 2.144531 -5.15625 1.625 -5.625 C 1.113281 -6.101562 0.859375 -6.6875 0.859375 -7.375 C 0.859375 -8.15625 1.171875 -8.800781 1.796875 -9.3125 C 2.421875 -9.832031 3.238281 -10.09375 4.25 -10.09375 C 4.925781 -10.09375 5.53125 -9.957031 6.0625 -9.6875 C 6.601562 -9.425781 7.019531 -9.0625 7.3125 -8.59375 C 7.613281 -8.132812 7.765625 -7.628906 7.765625 -7.078125 L 6.4375 -7.078125 C 6.4375 -7.679688 6.242188 -8.15625 5.859375 -8.5 C 5.484375 -8.84375 4.945312 -9.015625 4.25 -9.015625 C 3.601562 -9.015625 3.097656 -8.867188 2.734375 -8.578125 C 2.367188 -8.296875 2.1875 -7.898438 2.1875 -7.390625 C 2.1875 -6.984375 2.359375 -6.640625 2.703125 -6.359375 C 3.046875 -6.085938 3.628906 -5.832031 4.453125 -5.59375 C 5.285156 -5.363281 5.9375 -5.109375 6.40625 -4.828125 C 6.875 -4.546875 7.21875 -4.21875 7.4375 -3.84375 C 7.664062 -3.46875 7.78125 -3.03125 7.78125 -2.53125 C 7.78125 -1.71875 7.460938 -1.066406 6.828125 -0.578125 C 6.203125 -0.0976562 5.363281 0.140625 4.3125 0.140625 C 3.625 0.140625 2.984375 0.0078125 2.390625 -0.25 C 1.804688 -0.519531 1.351562 -0.878906 1.03125 -1.328125 C 0.707031 -1.785156 0.546875 -2.304688 0.546875 -2.890625 L 1.859375 -2.890625 C 1.859375 -2.285156 2.082031 -1.804688 2.53125 -1.453125 C 2.976562 -1.109375 3.570312 -0.9375 4.3125 -0.9375 C 5.007812 -0.9375 5.539062 -1.078125 5.90625 -1.359375 C 6.269531 -1.640625 6.453125 -2.023438 6.453125 -2.515625 C 6.453125 -3.003906 6.28125 -3.378906 5.9375 -3.640625 C 5.601562 -3.910156 4.988281 -4.175781 4.09375 -4.4375 Z M 4.09375 -4.4375 "/></g></g></g><g fill="#ffffff" fill-opacity="1"><g transform="translate(616.527921, 211.707945)"><g><path d="M 2.671875 -9.1875 L 2.671875 -7.390625 L 4.046875 -7.390625 L 4.046875 -6.421875 L 2.671875 -6.421875 L 2.671875 -1.828125 C 2.671875 -1.535156 2.734375 -1.3125 2.859375 -1.15625 C 2.984375 -1.007812 3.191406 -0.9375 3.484375 -0.9375 C 3.628906 -0.9375 3.832031 -0.96875 4.09375 -1.03125 L 4.09375 0 C 3.757812 0.09375 3.4375 0.140625 3.125 0.140625 C 2.550781 0.140625 2.117188 -0.03125 1.828125 -0.375 C 1.546875 -0.71875 1.40625 -1.203125 1.40625 -1.828125 L 1.40625 -6.421875 L 0.0625 -6.421875 L 0.0625 -7.390625 L 1.40625 -7.390625 L 1.40625 -9.1875 Z M 2.671875 -9.1875 "/></g></g></g><g fill="#ffffff" fill-opacity="1"><g transform="translate(621.098611, 211.707945)"><g><path d="M 3.375 -1.859375 L 5.09375 -7.390625 L 6.453125 -7.390625 L 3.484375 1.140625 C 3.023438 2.367188 2.289062 2.984375 1.28125 2.984375 L 1.046875 2.96875 L 0.578125 2.875 L 0.578125 1.859375 L 0.921875 1.875 C 1.347656 1.875 1.679688 1.785156 1.921875 1.609375 C 2.160156 1.441406 2.359375 1.128906 2.515625 0.671875 L 2.796875 -0.078125 L 0.15625 -7.390625 L 1.53125 -7.390625 Z M 3.375 -1.859375 "/></g></g></g><g fill="#ffffff" fill-opacity="1"><g transform="translate(627.718937, 211.707945)"><g><path d="M 2.328125 0 L 1.0625 0 L 1.0625 -10.5 L 2.328125 -10.5 Z M 2.328125 0 "/></g></g></g><g fill="#ffffff" fill-opacity="1"><g transform="translate(631.114502, 211.707945)"><g><path d="M 4.03125 0.140625 C 3.019531 0.140625 2.203125 -0.1875 1.578125 -0.84375 C 0.953125 -1.507812 0.640625 -2.394531 0.640625 -3.5 L 0.640625 -3.71875 C 0.640625 -4.457031 0.78125 -5.113281 1.0625 -5.6875 C 1.34375 -6.269531 1.734375 -6.722656 2.234375 -7.046875 C 2.734375 -7.367188 3.28125 -7.53125 3.875 -7.53125 C 4.832031 -7.53125 5.578125 -7.210938 6.109375 -6.578125 C 6.640625 -5.953125 6.90625 -5.046875 6.90625 -3.859375 L 6.90625 -3.34375 L 1.90625 -3.34375 C 1.914062 -2.613281 2.125 -2.019531 2.53125 -1.5625 C 2.945312 -1.113281 3.46875 -0.890625 4.09375 -0.890625 C 4.539062 -0.890625 4.914062 -0.976562 5.21875 -1.15625 C 5.53125 -1.34375 5.804688 -1.585938 6.046875 -1.890625 L 6.8125 -1.296875 C 6.195312 -0.335938 5.269531 0.140625 4.03125 0.140625 Z M 3.875 -6.5 C 3.363281 -6.5 2.929688 -6.3125 2.578125 -5.9375 C 2.234375 -5.5625 2.019531 -5.039062 1.9375 -4.375 L 5.640625 -4.375 L 5.640625 -4.46875 C 5.609375 -5.113281 5.4375 -5.613281 5.125 -5.96875 C 4.8125 -6.320312 4.394531 -6.5 3.875 -6.5 Z M 3.875 -6.5 "/></g></g></g><g fill="#ffffff" fill-opacity="1"><g transform="translate(638.527355, 211.707945)"><g><path d="M 5.265625 -1.96875 C 5.265625 -2.300781 5.132812 -2.5625 4.875 -2.75 C 4.613281 -2.945312 4.164062 -3.113281 3.53125 -3.25 C 2.894531 -3.382812 2.382812 -3.546875 2 -3.734375 C 1.625 -3.929688 1.347656 -4.160156 1.171875 -4.421875 C 0.992188 -4.679688 0.90625 -4.992188 0.90625 -5.359375 C 0.90625 -5.972656 1.160156 -6.488281 1.671875 -6.90625 C 2.179688 -7.320312 2.835938 -7.53125 3.640625 -7.53125 C 4.472656 -7.53125 5.148438 -7.3125 5.671875 -6.875 C 6.191406 -6.445312 6.453125 -5.894531 6.453125 -5.21875 L 5.1875 -5.21875 C 5.1875 -5.570312 5.039062 -5.875 4.75 -6.125 C 4.457031 -6.375 4.085938 -6.5 3.640625 -6.5 C 3.179688 -6.5 2.820312 -6.394531 2.5625 -6.1875 C 2.300781 -5.988281 2.171875 -5.726562 2.171875 -5.40625 C 2.171875 -5.101562 2.289062 -4.875 2.53125 -4.71875 C 2.769531 -4.5625 3.203125 -4.410156 3.828125 -4.265625 C 4.460938 -4.128906 4.976562 -3.960938 5.375 -3.765625 C 5.769531 -3.566406 6.0625 -3.328125 6.25 -3.046875 C 6.4375 -2.773438 6.53125 -2.441406 6.53125 -2.046875 C 6.53125 -1.390625 6.265625 -0.859375 5.734375 -0.453125 C 5.203125 -0.0546875 4.515625 0.140625 3.671875 0.140625 C 3.085938 0.140625 2.566406 0.0351562 2.109375 -0.171875 C 1.648438 -0.390625 1.289062 -0.6875 1.03125 -1.0625 C 0.78125 -1.4375 0.65625 -1.84375 0.65625 -2.28125 L 1.921875 -2.28125 C 1.941406 -1.851562 2.109375 -1.515625 2.421875 -1.265625 C 2.742188 -1.015625 3.160156 -0.890625 3.671875 -0.890625 C 4.148438 -0.890625 4.535156 -0.988281 4.828125 -1.1875 C 5.117188 -1.382812 5.265625 -1.644531 5.265625 -1.96875 Z M 5.265625 -1.96875 "/></g></g></g><g clip-path="url(#30407f8db8)"><path fill="#8b2222" d="M 521.4375 301.636719 L 694.214844 301.636719 L 694.214844 365.738281 L 521.4375 365.738281 Z M 521.4375 301.636719 " fill-opacity="1" fill-rule="nonzero"/></g><g fill="#ffffff" fill-opacity="1"><g transform="translate(562.6184, 338.385035)"><g><path d="M 6.65625 -2.59375 L 2.484375 -2.59375 L 1.546875 0 L 0.1875 0 L 4 -9.953125 L 5.140625 -9.953125 L 8.953125 0 L 7.609375 0 Z M 2.875 -3.671875 L 6.265625 -3.671875 L 4.5625 -8.328125 Z M 2.875 -3.671875 "/></g></g></g><g fill="#ffffff" fill-opacity="1"><g transform="translate(571.746116, 338.385035)"><g><path d="M 0.65625 -3.765625 C 0.65625 -4.898438 0.921875 -5.8125 1.453125 -6.5 C 1.992188 -7.1875 2.695312 -7.53125 3.5625 -7.53125 C 4.4375 -7.53125 5.125 -7.234375 5.625 -6.640625 L 5.625 -10.5 L 6.890625 -10.5 L 6.890625 0 L 5.734375 0 L 5.671875 -0.796875 C 5.160156 -0.171875 4.457031 0.140625 3.5625 0.140625 C 2.695312 0.140625 1.992188 -0.207031 1.453125 -0.90625 C 0.921875 -1.613281 0.65625 -2.535156 0.65625 -3.671875 Z M 1.921875 -3.609375 C 1.921875 -2.773438 2.09375 -2.117188 2.4375 -1.640625 C 2.78125 -1.171875 3.257812 -0.9375 3.875 -0.9375 C 4.675781 -0.9375 5.257812 -1.296875 5.625 -2.015625 L 5.625 -5.421875 C 5.25 -6.109375 4.671875 -6.453125 3.890625 -6.453125 C 3.265625 -6.453125 2.78125 -6.210938 2.4375 -5.734375 C 2.09375 -5.265625 1.921875 -4.554688 1.921875 -3.609375 Z M 1.921875 -3.609375 "/></g></g></g><g fill="#ffffff" fill-opacity="1"><g transform="translate(579.637217, 338.385035)"><g><path d="M 0.65625 -3.765625 C 0.65625 -4.898438 0.921875 -5.8125 1.453125 -6.5 C 1.992188 -7.1875 2.695312 -7.53125 3.5625 -7.53125 C 4.4375 -7.53125 5.125 -7.234375 5.625 -6.640625 L 5.625 -10.5 L 6.890625 -10.5 L 6.890625 0 L 5.734375 0 L 5.671875 -0.796875 C 5.160156 -0.171875 4.457031 0.140625 3.5625 0.140625 C 2.695312 0.140625 1.992188 -0.207031 1.453125 -0.90625 C 0.921875 -1.613281 0.65625 -2.535156 0.65625 -3.671875 Z M 1.921875 -3.609375 C 1.921875 -2.773438 2.09375 -2.117188 2.4375 -1.640625 C 2.78125 -1.171875 3.257812 -0.9375 3.875 -0.9375 C 4.675781 -0.9375 5.257812 -1.296875 5.625 -2.015625 L 5.625 -5.421875 C 5.25 -6.109375 4.671875 -6.453125 3.890625 -6.453125 C 3.265625 -6.453125 2.78125 -6.210938 2.4375 -5.734375 C 2.09375 -5.265625 1.921875 -4.554688 1.921875 -3.609375 Z M 1.921875 -3.609375 "/></g></g></g><g fill="#ffffff" fill-opacity="1"><g transform="translate(587.528319, 338.385035)"><g/></g></g><g fill="#ffffff" fill-opacity="1"><g transform="translate(590.992205, 338.385035)"><g><path d="M 1.15625 0 L 1.15625 -9.953125 L 4.40625 -9.953125 C 5.488281 -9.953125 6.300781 -9.726562 6.84375 -9.28125 C 7.382812 -8.832031 7.65625 -8.171875 7.65625 -7.296875 C 7.65625 -6.835938 7.523438 -6.425781 7.265625 -6.0625 C 7.003906 -5.707031 6.644531 -5.429688 6.1875 -5.234375 C 6.726562 -5.085938 7.15625 -4.800781 7.46875 -4.375 C 7.78125 -3.957031 7.9375 -3.457031 7.9375 -2.875 C 7.9375 -1.976562 7.644531 -1.273438 7.0625 -0.765625 C 6.476562 -0.253906 5.660156 0 4.609375 0 Z M 2.46875 -4.65625 L 2.46875 -1.078125 L 4.640625 -1.078125 C 5.242188 -1.078125 5.722656 -1.234375 6.078125 -1.546875 C 6.429688 -1.867188 6.609375 -2.304688 6.609375 -2.859375 C 6.609375 -4.054688 5.957031 -4.65625 4.65625 -4.65625 Z M 2.46875 -5.703125 L 4.453125 -5.703125 C 5.023438 -5.703125 5.484375 -5.84375 5.828125 -6.125 C 6.171875 -6.414062 6.34375 -6.8125 6.34375 -7.3125 C 6.34375 -7.851562 6.179688 -8.25 5.859375 -8.5 C 5.546875 -8.75 5.0625 -8.875 4.40625 -8.875 L 2.46875 -8.875 Z M 2.46875 -5.703125 "/></g></g></g><g fill="#ffffff" fill-opacity="1"><g transform="translate(599.703161, 338.385035)"><g><path d="M 4.03125 0.140625 C 3.019531 0.140625 2.203125 -0.1875 1.578125 -0.84375 C 0.953125 -1.507812 0.640625 -2.394531 0.640625 -3.5 L 0.640625 -3.71875 C 0.640625 -4.457031 0.78125 -5.113281 1.0625 -5.6875 C 1.34375 -6.269531 1.734375 -6.722656 2.234375 -7.046875 C 2.734375 -7.367188 3.28125 -7.53125 3.875 -7.53125 C 4.832031 -7.53125 5.578125 -7.210938 6.109375 -6.578125 C 6.640625 -5.953125 6.90625 -5.046875 6.90625 -3.859375 L 6.90625 -3.34375 L 1.90625 -3.34375 C 1.914062 -2.613281 2.125 -2.019531 2.53125 -1.5625 C 2.945312 -1.113281 3.46875 -0.890625 4.09375 -0.890625 C 4.539062 -0.890625 4.914062 -0.976562 5.21875 -1.15625 C 5.53125 -1.34375 5.804688 -1.585938 6.046875 -1.890625 L 6.8125 -1.296875 C 6.195312 -0.335938 5.269531 0.140625 4.03125 0.140625 Z M 3.875 -6.5 C 3.363281 -6.5 2.929688 -6.3125 2.578125 -5.9375 C 2.234375 -5.5625 2.019531 -5.039062 1.9375 -4.375 L 5.640625 -4.375 L 5.640625 -4.46875 C 5.609375 -5.113281 5.4375 -5.613281 5.125 -5.96875 C 4.8125 -6.320312 4.394531 -6.5 3.875 -6.5 Z M 3.875 -6.5 "/></g></g></g><g fill="#ffffff" fill-opacity="1"><g transform="translate(607.116014, 338.385035)"><g><path d="M 2.21875 -6.5 C 2.78125 -7.1875 3.507812 -7.53125 4.40625 -7.53125 C 5.96875 -7.53125 6.757812 -6.648438 6.78125 -4.890625 L 6.78125 0 L 5.515625 0 L 5.515625 -4.890625 C 5.503906 -5.421875 5.378906 -5.8125 5.140625 -6.0625 C 4.898438 -6.320312 4.53125 -6.453125 4.03125 -6.453125 C 3.613281 -6.453125 3.25 -6.34375 2.9375 -6.125 C 2.632812 -5.90625 2.394531 -5.617188 2.21875 -5.265625 L 2.21875 0 L 0.953125 0 L 0.953125 -10.5 L 2.21875 -10.5 Z M 2.21875 -6.5 "/></g></g></g><g fill="#ffffff" fill-opacity="1"><g transform="translate(614.822648, 338.385035)"><g><path d="M 5.53125 0 C 5.457031 -0.144531 5.394531 -0.40625 5.34375 -0.78125 C 4.757812 -0.164062 4.054688 0.140625 3.234375 0.140625 C 2.503906 0.140625 1.90625 -0.0625 1.4375 -0.46875 C 0.976562 -0.882812 0.75 -1.410156 0.75 -2.046875 C 0.75 -2.816406 1.039062 -3.414062 1.625 -3.84375 C 2.207031 -4.269531 3.03125 -4.484375 4.09375 -4.484375 L 5.328125 -4.484375 L 5.328125 -5.0625 C 5.328125 -5.507812 5.191406 -5.863281 4.921875 -6.125 C 4.660156 -6.382812 4.273438 -6.515625 3.765625 -6.515625 C 3.304688 -6.515625 2.925781 -6.398438 2.625 -6.171875 C 2.320312 -5.941406 2.171875 -5.664062 2.171875 -5.34375 L 0.890625 -5.34375 C 0.890625 -5.71875 1.019531 -6.078125 1.28125 -6.421875 C 1.550781 -6.765625 1.910156 -7.035156 2.359375 -7.234375 C 2.804688 -7.429688 3.296875 -7.53125 3.828125 -7.53125 C 4.679688 -7.53125 5.347656 -7.316406 5.828125 -6.890625 C 6.316406 -6.460938 6.570312 -5.878906 6.59375 -5.140625 L 6.59375 -1.734375 C 6.59375 -1.054688 6.675781 -0.515625 6.84375 -0.109375 L 6.84375 0 Z M 3.421875 -0.96875 C 3.816406 -0.96875 4.191406 -1.066406 4.546875 -1.265625 C 4.910156 -1.472656 5.171875 -1.742188 5.328125 -2.078125 L 5.328125 -3.59375 L 4.328125 -3.59375 C 2.785156 -3.59375 2.015625 -3.140625 2.015625 -2.234375 C 2.015625 -1.835938 2.144531 -1.523438 2.40625 -1.296875 C 2.664062 -1.078125 3.003906 -0.96875 3.421875 -0.96875 Z M 3.421875 -0.96875 "/></g></g></g><g fill="#ffffff" fill-opacity="1"><g transform="translate(622.433633, 338.385035)"><g><path d="M 3.390625 -1.71875 L 5.234375 -7.390625 L 6.515625 -7.390625 L 3.875 0 L 2.90625 0 L 0.21875 -7.390625 L 1.515625 -7.390625 Z M 3.390625 -1.71875 "/></g></g></g><g fill="#ffffff" fill-opacity="1"><g transform="translate(629.211098, 338.385035)"><g><path d="M 2.328125 0 L 1.0625 0 L 1.0625 -7.390625 L 2.328125 -7.390625 Z M 0.96875 -9.359375 C 0.96875 -9.566406 1.03125 -9.738281 1.15625 -9.875 C 1.28125 -10.019531 1.460938 -10.09375 1.703125 -10.09375 C 1.953125 -10.09375 2.140625 -10.019531 2.265625 -9.875 C 2.398438 -9.738281 2.46875 -9.566406 2.46875 -9.359375 C 2.46875 -9.148438 2.398438 -8.976562 2.265625 -8.84375 C 2.140625 -8.707031 1.953125 -8.640625 1.703125 -8.640625 C 1.460938 -8.640625 1.28125 -8.707031 1.15625 -8.84375 C 1.03125 -8.976562 0.96875 -9.148438 0.96875 -9.359375 Z M 0.96875 -9.359375 "/></g></g></g><g fill="#ffffff" fill-opacity="1"><g transform="translate(632.606663, 338.385035)"><g><path d="M 0.625 -3.765625 C 0.625 -4.492188 0.765625 -5.144531 1.046875 -5.71875 C 1.335938 -6.300781 1.734375 -6.75 2.234375 -7.0625 C 2.742188 -7.375 3.328125 -7.53125 3.984375 -7.53125 C 4.984375 -7.53125 5.796875 -7.179688 6.421875 -6.484375 C 7.046875 -5.785156 7.359375 -4.859375 7.359375 -3.703125 L 7.359375 -3.609375 C 7.359375 -2.890625 7.21875 -2.242188 6.9375 -1.671875 C 6.664062 -1.109375 6.269531 -0.664062 5.75 -0.34375 C 5.238281 -0.0195312 4.65625 0.140625 4 0.140625 C 2.988281 0.140625 2.171875 -0.207031 1.546875 -0.90625 C 0.929688 -1.601562 0.625 -2.523438 0.625 -3.671875 Z M 1.890625 -3.609375 C 1.890625 -2.796875 2.078125 -2.140625 2.453125 -1.640625 C 2.835938 -1.140625 3.351562 -0.890625 4 -0.890625 C 4.632812 -0.890625 5.140625 -1.140625 5.515625 -1.640625 C 5.898438 -2.148438 6.09375 -2.859375 6.09375 -3.765625 C 6.09375 -4.578125 5.898438 -5.234375 5.515625 -5.734375 C 5.128906 -6.242188 4.617188 -6.5 3.984375 -6.5 C 3.359375 -6.5 2.851562 -6.25 2.46875 -5.75 C 2.082031 -5.25 1.890625 -4.535156 1.890625 -3.609375 Z M 1.890625 -3.609375 "/></g></g></g><g fill="#ffffff" fill-opacity="1"><g transform="translate(640.586582, 338.385035)"><g><path d="M 5.53125 -0.734375 C 5.03125 -0.148438 4.304688 0.140625 3.359375 0.140625 C 2.566406 0.140625 1.960938 -0.0859375 1.546875 -0.546875 C 1.140625 -1.003906 0.9375 -1.679688 0.9375 -2.578125 L 0.9375 -7.390625 L 2.1875 -7.390625 L 2.1875 -2.625 C 2.1875 -1.5 2.644531 -0.9375 3.5625 -0.9375 C 4.53125 -0.9375 5.171875 -1.296875 5.484375 -2.015625 L 5.484375 -7.390625 L 6.75 -7.390625 L 6.75 0 L 5.546875 0 Z M 5.53125 -0.734375 "/></g></g></g><g fill="#ffffff" fill-opacity="1"><g transform="translate(648.300049, 338.385035)"><g><path d="M 4.53125 -6.265625 C 4.34375 -6.296875 4.132812 -6.3125 3.90625 -6.3125 C 3.082031 -6.3125 2.519531 -5.957031 2.21875 -5.25 L 2.21875 0 L 0.953125 0 L 0.953125 -7.390625 L 2.1875 -7.390625 L 2.203125 -6.546875 C 2.617188 -7.203125 3.207031 -7.53125 3.96875 -7.53125 C 4.21875 -7.53125 4.40625 -7.5 4.53125 -7.4375 Z M 4.53125 -6.265625 "/></g></g></g><path fill="#4b4b4b" d="M 139.566406 112.4375 L 139.566406 115.4375 L 136.566406 115.4375 L 136.566406 112.4375 M 139.566406 118.4375 L 139.566406 121.4375 L 136.566406 121.4375 L 136.566406 118.4375 M 139.566406 124.4375 L 139.566406 127.4375 L 136.566406 127.4375 L 136.566406 124.4375 M 139.566406 130.4375 L 139.566406 133.4375 L 136.566406 133.4375 L 136.566406 130.4375 M 139.566406 136.4375 L 139.566406 139.4375 L 136.566406 139.4375 L 136.566406 136.4375 M 139.566406 142.4375 L 139.566406 145.4375 L 136.566406 145.4375 L 136.566406 142.4375 M 139.566406 148.4375 L 139.566406 151.4375 L 136.566406 151.4375 L 136.566406 148.4375 M 139.566406 154.4375 L 139.566406 157.4375 L 136.566406 157.4375 L 136.566406 154.4375 M 139.566406 160.4375 L 139.566406 163.4375 L 136.566406 163.4375 L 136.566406 160.4375 M 139.566406 166.4375 L 139.566406 169.4375 L 136.566406 169.4375 L 136.566406 166.4375 M 139.566406 172.4375 L 139.566406 175.4375 L 136.566406 175.4375 L 136.566406 172.4375 M 139.566406 178.4375 L 139.566406 181.4375 L 136.566406 181.4375 L 136.566406 178.4375 M 139.566406 184.4375 L 139.566406 187.4375 L 136.566406 187.4375 L 136.566406 184.4375 M 139.566406 190.4375 L 139.566406 193.4375 L 136.566406 193.4375 L 136.566406 190.4375 M 139.566406 196.4375 L 139.566406 199.4375 L 136.566406 199.4375 L 136.566406 196.4375 M 139.566406 202.4375 L 139.566406 205.4375 L 136.566406 205.4375 L 136.566406 202.4375 M 139.566406 208.4375 L 139.566406 211.4375 L 136.566406 211.4375 L 136.566406 208.4375 M 139.566406 214.4375 L 139.566406 217.4375 L 136.566406 217.4375 L 136.566406 214.4375 M 139.566406 220.4375 L 139.566406 223.4375 L 136.566406 223.4375 L 136.566406 220.4375 M 139.566406 226.4375 L 139.566406 229.4375 L 136.566406 229.4375 L 136.566406 226.4375 M 139.566406 232.4375 L 139.566406 235.4375 L 136.566406 235.4375 L 136.566406 232.4375 M 139.566406 238.4375 L 139.566406 241.4375 L 136.566406 241.4375 L 136.566406 238.4375 M 139.566406 244.4375 L 139.566406 247.4375 L 136.566406 247.4375 L 136.566406 244.4375 M 139.566406 250.4375 L 139.566406 253.4375 L 136.566406 253.4375 L 136.566406 250.4375 M 139.566406 256.4375 L 139.566406 259.4375 L 136.566406 259.4375 L 136.566406 256.4375 M 139.566406 262.4375 L 139.566406 265.4375 L 136.566406 265.4375 L 136.566406 262.4375 M 139.566406 268.4375 L 139.566406 271.4375 L 136.566406 271.4375 L 136.566406 268.4375 M 139.566406 274.4375 L 139.566406 277.4375 L 136.566406 277.4375 L 136.566406 274.4375 M 139.566406 280.4375 L 139.566406 283.4375 L 136.566406 283.4375 L 136.566406 280.4375 M 139.566406 286.4375 L 139.566406 289.4375 L 136.566406 289.4375 L 136.566406 286.4375 M 139.566406 292.4375 L 139.566406 295.4375 L 136.566406 295.4375 L 136.566406 292.4375 M 139.566406 298.4375 L 139.566406 301.4375 L 136.566406 301.4375 L 136.566406 298.4375 M 139.566406 304.4375 L 139.566406 307.4375 L 136.566406 307.4375 L 136.566406 304.4375 M 139.566406 310.4375 L 139.566406 313.4375 L 136.566406 313.4375 L 136.566406 310.4375 M 139.566406 316.4375 L 139.566406 319.4375 L 136.566406 319.4375 L 136.566406 316.4375 M 139.566406 322.4375 L 139.566406 325.4375 L 136.566406 325.4375 L 136.566406 322.4375 M 139.566406 328.4375 L 139.566406 330.792969 L 136.566406 330.792969 L 136.566406 328.4375 " fill-opacity="1" fill-rule="nonzero"/><g clip-path="url(#9b1404b521)"><path fill="#8b2222" d="M 50.167969 57.601562 L 222.878906 57.601562 L 222.878906 124.488281 L 50.167969 124.488281 Z M 50.167969 57.601562 " fill-opacity="1" fill-rule="nonzero"/></g><g fill="#ffffff" fill-opacity="1"><g transform="translate(117.527086, 95.850021)"><g><path d="M 8.8125 0 L 7.484375 0 L 7.484375 -4.59375 L 2.46875 -4.59375 L 2.46875 0 L 1.15625 0 L 1.15625 -9.953125 L 2.46875 -9.953125 L 2.46875 -5.671875 L 7.484375 -5.671875 L 7.484375 -9.953125 L 8.8125 -9.953125 Z M 8.8125 0 "/></g></g></g><g fill="#ffffff" fill-opacity="1"><g transform="translate(127.501985, 95.850021)"><g><path d="M 8.03125 -8.875 L 4.828125 -8.875 L 4.828125 0 L 3.53125 0 L 3.53125 -8.875 L 0.328125 -8.875 L 0.328125 -9.953125 L 8.03125 -9.953125 Z M 8.03125 -8.875 "/></g></g></g><g fill="#ffffff" fill-opacity="1"><g transform="translate(135.850839, 95.850021)"><g><path d="M 2.84375 -9.953125 L 6.109375 -1.828125 L 9.359375 -9.953125 L 11.0625 -9.953125 L 11.0625 0 L 9.75 0 L 9.75 -3.875 L 9.875 -8.0625 L 6.609375 0 L 5.59375 0 L 2.34375 -8.046875 L 2.46875 -3.875 L 2.46875 0 L 1.15625 0 L 1.15625 -9.953125 Z M 2.84375 -9.953125 "/></g></g></g><g fill="#ffffff" fill-opacity="1"><g transform="translate(148.066674, 95.850021)"><g><path d="M 2.46875 -1.078125 L 7.1875 -1.078125 L 7.1875 0 L 1.15625 0 L 1.15625 -9.953125 L 2.46875 -9.953125 Z M 2.46875 -1.078125 "/></g></g></g><g clip-path="url(#45c12056eb)"><path fill="#ffffff" d="M 199.097656 113.074219 L 170.648438 113.074219 C 168.34375 113.074219 166.464844 111.195312 166.464844 108.890625 L 166.464844 101.359375 L 203.28125 101.359375 L 203.28125 108.890625 C 203.28125 111.195312 201.402344 113.074219 199.097656 113.074219 Z M 170.648438 66.21875 L 193.238281 66.21875 L 193.238281 70.402344 C 193.238281 73.632812 195.867188 76.261719 199.097656 76.261719 L 203.28125 76.261719 L 203.28125 99.6875 L 166.464844 99.6875 L 166.464844 70.402344 C 166.464844 68.097656 168.34375 66.21875 170.648438 66.21875 Z M 194.914062 67.402344 L 202.097656 74.585938 L 199.097656 74.585938 C 196.789062 74.585938 194.914062 72.710938 194.914062 70.402344 Z M 194.667969 64.792969 C 194.511719 64.636719 194.296875 64.546875 194.078125 64.546875 L 170.648438 64.546875 C 167.421875 64.546875 164.792969 67.175781 164.792969 70.402344 L 164.792969 108.890625 C 164.792969 112.121094 167.421875 114.746094 170.648438 114.746094 L 199.097656 114.746094 C 202.324219 114.746094 204.953125 112.121094 204.953125 108.890625 L 204.953125 75.421875 C 204.953125 75.203125 204.863281 74.988281 204.707031 74.832031 L 194.667969 64.792969 " fill-opacity="1" fill-rule="nonzero"/></g><path fill="#ffffff" d="M 175.667969 103.035156 C 175.207031 103.035156 174.832031 103.410156 174.832031 103.871094 L 174.832031 106.378906 L 173.160156 106.378906 L 173.160156 103.871094 C 173.160156 103.410156 172.785156 103.035156 172.324219 103.035156 C 171.859375 103.035156 171.484375 103.410156 171.484375 103.871094 L 171.484375 110.5625 C 171.484375 111.027344 171.859375 111.402344 172.324219 111.402344 C 172.785156 111.402344 173.160156 111.027344 173.160156 110.5625 L 173.160156 108.054688 L 174.832031 108.054688 L 174.832031 110.5625 C 174.832031 111.027344 175.207031 111.402344 175.667969 111.402344 C 176.132812 111.402344 176.507812 111.027344 176.507812 110.5625 L 176.507812 103.871094 C 176.507812 103.410156 176.132812 103.035156 175.667969 103.035156 " fill-opacity="1" fill-rule="nonzero"/><path fill="#ffffff" d="M 182.363281 103.035156 L 179.015625 103.035156 C 178.554688 103.035156 178.179688 103.410156 178.179688 103.871094 C 178.179688 104.332031 178.554688 104.707031 179.015625 104.707031 L 179.851562 104.707031 L 179.851562 110.5625 C 179.851562 111.027344 180.226562 111.402344 180.691406 111.402344 C 181.152344 111.402344 181.527344 111.027344 181.527344 110.5625 L 181.527344 104.707031 L 182.363281 104.707031 C 182.824219 104.707031 183.199219 104.332031 183.199219 103.871094 C 183.199219 103.410156 182.824219 103.035156 182.363281 103.035156 " fill-opacity="1" fill-rule="nonzero"/><path fill="#ffffff" d="M 190.921875 103.054688 C 190.542969 102.96875 190.15625 103.148438 189.980469 103.496094 L 188.21875 107.019531 L 186.457031 103.496094 C 186.285156 103.148438 185.894531 102.96875 185.515625 103.054688 C 185.140625 103.144531 184.871094 103.484375 184.871094 103.871094 L 184.871094 110.5625 C 184.871094 111.027344 185.246094 111.402344 185.710938 111.402344 C 186.171875 111.402344 186.546875 111.027344 186.546875 110.5625 L 186.546875 107.414062 L 187.472656 109.265625 C 187.613281 109.546875 187.902344 109.726562 188.21875 109.726562 C 188.535156 109.726562 188.828125 109.546875 188.96875 109.265625 L 189.894531 107.414062 L 189.894531 110.5625 C 189.894531 111.027344 190.269531 111.402344 190.730469 111.402344 C 191.191406 111.402344 191.566406 111.027344 191.566406 110.5625 L 191.566406 103.871094 C 191.566406 103.484375 191.300781 103.144531 190.921875 103.054688 " fill-opacity="1" fill-rule="nonzero"/><path fill="#ffffff" d="M 197.421875 109.726562 L 194.914062 109.726562 L 194.914062 103.871094 C 194.914062 103.410156 194.539062 103.035156 194.078125 103.035156 C 193.613281 103.035156 193.238281 103.410156 193.238281 103.871094 L 193.238281 110.5625 C 193.238281 111.027344 193.613281 111.402344 194.078125 111.402344 L 197.421875 111.402344 C 197.886719 111.402344 198.257812 111.027344 198.257812 110.5625 C 198.257812 110.101562 197.886719 109.726562 197.421875 109.726562 " fill-opacity="1" fill-rule="nonzero"/><path fill="#ffffff" d="M 178.425781 90.238281 C 178.589844 90.402344 178.800781 90.484375 179.015625 90.484375 C 179.230469 90.484375 179.445312 90.402344 179.609375 90.238281 C 179.933594 89.910156 179.933594 89.382812 179.609375 89.054688 L 175.179688 84.628906 L 179.609375 80.199219 C 179.933594 79.871094 179.933594 79.34375 179.609375 79.015625 C 179.28125 78.6875 178.75 78.6875 178.425781 79.015625 L 173.40625 84.035156 C 173.078125 84.363281 173.078125 84.890625 173.40625 85.21875 L 178.425781 90.238281 " fill-opacity="1" fill-rule="nonzero"/><path fill="#ffffff" d="M 190.136719 90.238281 C 190.300781 90.402344 190.515625 90.484375 190.730469 90.484375 C 190.945312 90.484375 191.15625 90.402344 191.320312 90.238281 L 196.339844 85.21875 C 196.667969 84.890625 196.667969 84.363281 196.339844 84.035156 L 191.320312 79.015625 C 190.996094 78.6875 190.464844 78.6875 190.136719 79.015625 C 189.8125 79.34375 189.8125 79.871094 190.136719 80.199219 L 194.566406 84.628906 L 190.136719 89.054688 C 189.8125 89.382812 189.8125 89.910156 190.136719 90.238281 " fill-opacity="1" fill-rule="nonzero"/><path fill="#ffffff" d="M 182.097656 92.949219 C 182.1875 92.980469 182.277344 92.996094 182.363281 92.996094 C 182.714844 92.996094 183.039062 92.773438 183.15625 92.421875 L 188.175781 77.363281 C 188.324219 76.921875 188.085938 76.449219 187.648438 76.304688 C 187.207031 76.15625 186.734375 76.394531 186.589844 76.832031 L 181.570312 91.890625 C 181.421875 92.332031 181.660156 92.804688 182.097656 92.949219 " fill-opacity="1" fill-rule="nonzero"/><g clip-path="url(#9b65d5d600)"><path fill="#8b2222" d="M 50.167969 174.957031 L 222.878906 174.957031 L 222.878906 241.847656 L 50.167969 241.847656 Z M 50.167969 174.957031 " fill-opacity="1" fill-rule="nonzero"/></g><g fill="#ffffff" fill-opacity="1"><g transform="translate(123.702867, 213.207945)"><g><path d="M 8.484375 -3.15625 C 8.359375 -2.101562 7.96875 -1.289062 7.3125 -0.71875 C 6.65625 -0.144531 5.785156 0.140625 4.703125 0.140625 C 3.523438 0.140625 2.582031 -0.28125 1.875 -1.125 C 1.164062 -1.96875 0.8125 -3.097656 0.8125 -4.515625 L 0.8125 -5.46875 C 0.8125 -6.394531 0.976562 -7.207031 1.3125 -7.90625 C 1.644531 -8.613281 2.113281 -9.15625 2.71875 -9.53125 C 3.320312 -9.90625 4.019531 -10.09375 4.8125 -10.09375 C 5.875 -10.09375 6.722656 -9.796875 7.359375 -9.203125 C 7.992188 -8.609375 8.367188 -7.789062 8.484375 -6.75 L 7.15625 -6.75 C 7.039062 -7.539062 6.789062 -8.113281 6.40625 -8.46875 C 6.03125 -8.832031 5.5 -9.015625 4.8125 -9.015625 C 3.976562 -9.015625 3.320312 -8.703125 2.84375 -8.078125 C 2.375 -7.460938 2.140625 -6.582031 2.140625 -5.4375 L 2.140625 -4.46875 C 2.140625 -3.382812 2.363281 -2.523438 2.8125 -1.890625 C 3.257812 -1.253906 3.890625 -0.9375 4.703125 -0.9375 C 5.429688 -0.9375 5.988281 -1.097656 6.375 -1.421875 C 6.769531 -1.753906 7.03125 -2.332031 7.15625 -3.15625 Z M 8.484375 -3.15625 "/></g></g></g><g fill="#ffffff" fill-opacity="1"><g transform="translate(132.810086, 213.207945)"><g><path d="M 4.09375 -4.4375 C 2.96875 -4.757812 2.144531 -5.15625 1.625 -5.625 C 1.113281 -6.101562 0.859375 -6.6875 0.859375 -7.375 C 0.859375 -8.15625 1.171875 -8.800781 1.796875 -9.3125 C 2.421875 -9.832031 3.238281 -10.09375 4.25 -10.09375 C 4.925781 -10.09375 5.53125 -9.957031 6.0625 -9.6875 C 6.601562 -9.425781 7.019531 -9.0625 7.3125 -8.59375 C 7.613281 -8.132812 7.765625 -7.628906 7.765625 -7.078125 L 6.4375 -7.078125 C 6.4375 -7.679688 6.242188 -8.15625 5.859375 -8.5 C 5.484375 -8.84375 4.945312 -9.015625 4.25 -9.015625 C 3.601562 -9.015625 3.097656 -8.867188 2.734375 -8.578125 C 2.367188 -8.296875 2.1875 -7.898438 2.1875 -7.390625 C 2.1875 -6.984375 2.359375 -6.640625 2.703125 -6.359375 C 3.046875 -6.085938 3.628906 -5.832031 4.453125 -5.59375 C 5.285156 -5.363281 5.9375 -5.109375 6.40625 -4.828125 C 6.875 -4.546875 7.21875 -4.21875 7.4375 -3.84375 C 7.664062 -3.46875 7.78125 -3.03125 7.78125 -2.53125 C 7.78125 -1.71875 7.460938 -1.066406 6.828125 -0.578125 C 6.203125 -0.0976562 5.363281 0.140625 4.3125 0.140625 C 3.625 0.140625 2.984375 0.0078125 2.390625 -0.25 C 1.804688 -0.519531 1.351562 -0.878906 1.03125 -1.328125 C 0.707031 -1.785156 0.546875 -2.304688 0.546875 -2.890625 L 1.859375 -2.890625 C 1.859375 -2.285156 2.082031 -1.804688 2.53125 -1.453125 C 2.976562 -1.109375 3.570312 -0.9375 4.3125 -0.9375 C 5.007812 -0.9375 5.539062 -1.078125 5.90625 -1.359375 C 6.269531 -1.640625 6.453125 -2.023438 6.453125 -2.515625 C 6.453125 -3.003906 6.28125 -3.378906 5.9375 -3.640625 C 5.601562 -3.910156 4.988281 -4.175781 4.09375 -4.4375 Z M 4.09375 -4.4375 "/></g></g></g><g fill="#ffffff" fill-opacity="1"><g transform="translate(141.111115, 213.207945)"><g><path d="M 4.09375 -4.4375 C 2.96875 -4.757812 2.144531 -5.15625 1.625 -5.625 C 1.113281 -6.101562 0.859375 -6.6875 0.859375 -7.375 C 0.859375 -8.15625 1.171875 -8.800781 1.796875 -9.3125 C 2.421875 -9.832031 3.238281 -10.09375 4.25 -10.09375 C 4.925781 -10.09375 5.53125 -9.957031 6.0625 -9.6875 C 6.601562 -9.425781 7.019531 -9.0625 7.3125 -8.59375 C 7.613281 -8.132812 7.765625 -7.628906 7.765625 -7.078125 L 6.4375 -7.078125 C 6.4375 -7.679688 6.242188 -8.15625 5.859375 -8.5 C 5.484375 -8.84375 4.945312 -9.015625 4.25 -9.015625 C 3.601562 -9.015625 3.097656 -8.867188 2.734375 -8.578125 C 2.367188 -8.296875 2.1875 -7.898438 2.1875 -7.390625 C 2.1875 -6.984375 2.359375 -6.640625 2.703125 -6.359375 C 3.046875 -6.085938 3.628906 -5.832031 4.453125 -5.59375 C 5.285156 -5.363281 5.9375 -5.109375 6.40625 -4.828125 C 6.875 -4.546875 7.21875 -4.21875 7.4375 -3.84375 C 7.664062 -3.46875 7.78125 -3.03125 7.78125 -2.53125 C 7.78125 -1.71875 7.460938 -1.066406 6.828125 -0.578125 C 6.203125 -0.0976562 5.363281 0.140625 4.3125 0.140625 C 3.625 0.140625 2.984375 0.0078125 2.390625 -0.25 C 1.804688 -0.519531 1.351562 -0.878906 1.03125 -1.328125 C 0.707031 -1.785156 0.546875 -2.304688 0.546875 -2.890625 L 1.859375 -2.890625 C 1.859375 -2.285156 2.082031 -1.804688 2.53125 -1.453125 C 2.976562 -1.109375 3.570312 -0.9375 4.3125 -0.9375 C 5.007812 -0.9375 5.539062 -1.078125 5.90625 -1.359375 C 6.269531 -1.640625 6.453125 -2.023438 6.453125 -2.515625 C 6.453125 -3.003906 6.28125 -3.378906 5.9375 -3.640625 C 5.601562 -3.910156 4.988281 -4.175781 4.09375 -4.4375 Z M 4.09375 -4.4375 "/></g></g></g><g clip-path="url(#c89d242e28)"><path fill="#0263d1" d="M 176.945312 183.273438 L 192.992188 183.273438 L 207.160156 197.398438 L 207.160156 224.527344 C 207.160156 227.824219 204.457031 230.519531 201.152344 230.519531 L 176.945312 230.519531 C 173.640625 230.519531 170.933594 227.824219 170.933594 224.527344 L 170.933594 189.261719 C 170.933594 185.96875 173.640625 183.273438 176.945312 183.273438 Z M 176.945312 183.273438 " fill-opacity="1" fill-rule="evenodd"/></g><g clip-path="url(#b52670bbac)"><path fill="#014fa7" d="M 192.992188 183.273438 L 207.160156 197.398438 L 194.519531 197.398438 C 193.679688 197.398438 192.992188 196.710938 192.992188 195.875 Z M 192.992188 183.273438 " fill-opacity="1" fill-rule="evenodd"/></g><g clip-path="url(#47452c95c2)"><path fill="#014fa7" d="M 164.226562 203.390625 L 196.863281 203.390625 C 197.589844 203.390625 198.183594 203.980469 198.183594 204.707031 L 198.183594 216.644531 C 198.183594 217.367188 197.589844 217.960938 196.863281 217.960938 L 164.226562 217.960938 C 163.503906 217.960938 162.910156 217.367188 162.910156 216.644531 L 162.910156 204.707031 C 162.910156 203.980469 163.503906 203.390625 164.226562 203.390625 Z M 164.226562 203.390625 " fill-opacity="1" fill-rule="evenodd"/></g><path fill="#ffffff" d="M 170.707031 209.042969 L 170.707031 212.304688 C 170.707031 213.238281 171.46875 214 172.40625 214 C 173.339844 214 174.101562 213.238281 174.101562 212.304688 C 174.101562 211.886719 174.445312 211.542969 174.867188 211.542969 C 175.289062 211.542969 175.632812 211.886719 175.632812 212.304688 C 175.632812 214.082031 174.183594 215.523438 172.40625 215.523438 C 170.625 215.523438 169.175781 214.082031 169.175781 212.304688 L 169.175781 209.042969 C 169.175781 207.269531 170.625 205.828125 172.40625 205.828125 C 174.183594 205.828125 175.632812 207.269531 175.632812 209.042969 C 175.632812 209.464844 175.289062 209.808594 174.867188 209.808594 C 174.445312 209.808594 174.101562 209.464844 174.101562 209.042969 C 174.101562 208.113281 173.339844 207.351562 172.40625 207.351562 C 171.46875 207.351562 170.707031 208.113281 170.707031 209.042969 Z M 180.246094 207.351562 L 181.464844 207.351562 C 181.957031 207.351562 182.355469 207.753906 182.355469 208.242188 C 182.355469 208.664062 182.699219 209.003906 183.121094 209.003906 C 183.542969 209.003906 183.886719 208.664062 183.886719 208.242188 C 183.886719 206.910156 182.800781 205.828125 181.464844 205.828125 L 180.246094 205.828125 C 178.695312 205.828125 177.433594 207.085938 177.433594 208.632812 C 177.433594 210 178.136719 210.667969 178.726562 210.988281 C 179.476562 211.390625 180.425781 211.4375 181.070312 211.4375 C 181.78125 211.4375 182.355469 212.011719 182.355469 212.71875 C 182.355469 213.421875 181.78125 214 181.070312 214 L 179.855469 214 C 179.363281 214 178.964844 213.597656 178.964844 213.109375 C 178.964844 212.6875 178.621094 212.34375 178.199219 212.34375 C 177.777344 212.34375 177.433594 212.6875 177.433594 213.109375 C 177.433594 214.441406 178.519531 215.523438 179.855469 215.523438 L 181.070312 215.523438 C 182.625 215.523438 183.886719 214.265625 183.886719 212.71875 C 183.886719 211.171875 182.625 209.914062 181.070312 209.914062 C 179.121094 209.914062 178.964844 209.332031 178.964844 208.632812 C 178.964844 207.925781 179.539062 207.351562 180.246094 207.351562 Z M 189.101562 209.914062 C 187.148438 209.914062 186.992188 209.332031 186.992188 208.632812 C 186.992188 207.925781 187.566406 207.351562 188.277344 207.351562 L 189.492188 207.351562 C 189.984375 207.351562 190.382812 207.753906 190.382812 208.242188 C 190.382812 208.664062 190.726562 209.003906 191.148438 209.003906 C 191.570312 209.003906 191.914062 208.664062 191.914062 208.242188 C 191.914062 206.910156 190.828125 205.828125 189.492188 205.828125 L 188.277344 205.828125 C 186.722656 205.828125 185.460938 207.085938 185.460938 208.632812 C 185.460938 210 186.164062 210.667969 186.757812 210.988281 C 187.507812 211.390625 188.453125 211.4375 189.101562 211.4375 C 189.808594 211.4375 190.382812 212.011719 190.382812 212.71875 C 190.382812 213.421875 189.808594 214 189.101562 214 L 187.882812 214 C 187.390625 214 186.992188 213.597656 186.992188 213.109375 C 186.992188 212.6875 186.648438 212.34375 186.226562 212.34375 C 185.800781 212.34375 185.460938 212.6875 185.460938 213.109375 C 185.460938 214.441406 186.546875 215.523438 187.882812 215.523438 L 189.101562 215.523438 C 190.652344 215.523438 191.914062 214.265625 191.914062 212.71875 C 191.914062 211.171875 190.652344 209.914062 189.101562 209.914062 Z M 189.101562 209.914062 " fill-opacity="1" fill-rule="nonzero"/><g clip-path="url(#6316b48e1b)"><path fill="#8b2222" d="M 50.167969 298.847656 L 222.878906 298.847656 L 222.878906 365.738281 L 50.167969 365.738281 Z M 50.167969 298.847656 " fill-opacity="1" fill-rule="nonzero"/></g><g fill="#ffffff" fill-opacity="1"><g transform="translate(103.605212, 337.097936)"><g><path d="M 5.328125 -9.953125 L 6.640625 -9.953125 L 6.640625 -2.90625 C 6.640625 -1.957031 6.351562 -1.210938 5.78125 -0.671875 C 5.207031 -0.128906 4.445312 0.140625 3.5 0.140625 C 2.507812 0.140625 1.738281 -0.109375 1.1875 -0.609375 C 0.632812 -1.117188 0.359375 -1.832031 0.359375 -2.75 L 1.671875 -2.75 C 1.671875 -2.175781 1.828125 -1.726562 2.140625 -1.40625 C 2.453125 -1.09375 2.90625 -0.9375 3.5 -0.9375 C 4.039062 -0.9375 4.476562 -1.109375 4.8125 -1.453125 C 5.144531 -1.796875 5.316406 -2.273438 5.328125 -2.890625 Z M 5.328125 -9.953125 "/></g></g></g><g fill="#ffffff" fill-opacity="1"><g transform="translate(111.32551, 337.097936)"><g><path d="M 5.53125 0 C 5.457031 -0.144531 5.394531 -0.40625 5.34375 -0.78125 C 4.757812 -0.164062 4.054688 0.140625 3.234375 0.140625 C 2.503906 0.140625 1.90625 -0.0625 1.4375 -0.46875 C 0.976562 -0.882812 0.75 -1.410156 0.75 -2.046875 C 0.75 -2.816406 1.039062 -3.414062 1.625 -3.84375 C 2.207031 -4.269531 3.03125 -4.484375 4.09375 -4.484375 L 5.328125 -4.484375 L 5.328125 -5.0625 C 5.328125 -5.507812 5.191406 -5.863281 4.921875 -6.125 C 4.660156 -6.382812 4.273438 -6.515625 3.765625 -6.515625 C 3.304688 -6.515625 2.925781 -6.398438 2.625 -6.171875 C 2.320312 -5.941406 2.171875 -5.664062 2.171875 -5.34375 L 0.890625 -5.34375 C 0.890625 -5.71875 1.019531 -6.078125 1.28125 -6.421875 C 1.550781 -6.765625 1.910156 -7.035156 2.359375 -7.234375 C 2.804688 -7.429688 3.296875 -7.53125 3.828125 -7.53125 C 4.679688 -7.53125 5.347656 -7.316406 5.828125 -6.890625 C 6.316406 -6.460938 6.570312 -5.878906 6.59375 -5.140625 L 6.59375 -1.734375 C 6.59375 -1.054688 6.675781 -0.515625 6.84375 -0.109375 L 6.84375 0 Z M 3.421875 -0.96875 C 3.816406 -0.96875 4.191406 -1.066406 4.546875 -1.265625 C 4.910156 -1.472656 5.171875 -1.742188 5.328125 -2.078125 L 5.328125 -3.59375 L 4.328125 -3.59375 C 2.785156 -3.59375 2.015625 -3.140625 2.015625 -2.234375 C 2.015625 -1.835938 2.144531 -1.523438 2.40625 -1.296875 C 2.664062 -1.078125 3.003906 -0.96875 3.421875 -0.96875 Z M 3.421875 -0.96875 "/></g></g></g><g fill="#ffffff" fill-opacity="1"><g transform="translate(118.936495, 337.097936)"><g><path d="M 3.390625 -1.71875 L 5.234375 -7.390625 L 6.515625 -7.390625 L 3.875 0 L 2.90625 0 L 0.21875 -7.390625 L 1.515625 -7.390625 Z M 3.390625 -1.71875 "/></g></g></g><g fill="#ffffff" fill-opacity="1"><g transform="translate(125.71396, 337.097936)"><g><path d="M 5.53125 0 C 5.457031 -0.144531 5.394531 -0.40625 5.34375 -0.78125 C 4.757812 -0.164062 4.054688 0.140625 3.234375 0.140625 C 2.503906 0.140625 1.90625 -0.0625 1.4375 -0.46875 C 0.976562 -0.882812 0.75 -1.410156 0.75 -2.046875 C 0.75 -2.816406 1.039062 -3.414062 1.625 -3.84375 C 2.207031 -4.269531 3.03125 -4.484375 4.09375 -4.484375 L 5.328125 -4.484375 L 5.328125 -5.0625 C 5.328125 -5.507812 5.191406 -5.863281 4.921875 -6.125 C 4.660156 -6.382812 4.273438 -6.515625 3.765625 -6.515625 C 3.304688 -6.515625 2.925781 -6.398438 2.625 -6.171875 C 2.320312 -5.941406 2.171875 -5.664062 2.171875 -5.34375 L 0.890625 -5.34375 C 0.890625 -5.71875 1.019531 -6.078125 1.28125 -6.421875 C 1.550781 -6.765625 1.910156 -7.035156 2.359375 -7.234375 C 2.804688 -7.429688 3.296875 -7.53125 3.828125 -7.53125 C 4.679688 -7.53125 5.347656 -7.316406 5.828125 -6.890625 C 6.316406 -6.460938 6.570312 -5.878906 6.59375 -5.140625 L 6.59375 -1.734375 C 6.59375 -1.054688 6.675781 -0.515625 6.84375 -0.109375 L 6.84375 0 Z M 3.421875 -0.96875 C 3.816406 -0.96875 4.191406 -1.066406 4.546875 -1.265625 C 4.910156 -1.472656 5.171875 -1.742188 5.328125 -2.078125 L 5.328125 -3.59375 L 4.328125 -3.59375 C 2.785156 -3.59375 2.015625 -3.140625 2.015625 -2.234375 C 2.015625 -1.835938 2.144531 -1.523438 2.40625 -1.296875 C 2.664062 -1.078125 3.003906 -0.96875 3.421875 -0.96875 Z M 3.421875 -0.96875 "/></g></g></g><g fill="#ffffff" fill-opacity="1"><g transform="translate(133.324945, 337.097936)"><g><path d="M 4.09375 -4.4375 C 2.96875 -4.757812 2.144531 -5.15625 1.625 -5.625 C 1.113281 -6.101562 0.859375 -6.6875 0.859375 -7.375 C 0.859375 -8.15625 1.171875 -8.800781 1.796875 -9.3125 C 2.421875 -9.832031 3.238281 -10.09375 4.25 -10.09375 C 4.925781 -10.09375 5.53125 -9.957031 6.0625 -9.6875 C 6.601562 -9.425781 7.019531 -9.0625 7.3125 -8.59375 C 7.613281 -8.132812 7.765625 -7.628906 7.765625 -7.078125 L 6.4375 -7.078125 C 6.4375 -7.679688 6.242188 -8.15625 5.859375 -8.5 C 5.484375 -8.84375 4.945312 -9.015625 4.25 -9.015625 C 3.601562 -9.015625 3.097656 -8.867188 2.734375 -8.578125 C 2.367188 -8.296875 2.1875 -7.898438 2.1875 -7.390625 C 2.1875 -6.984375 2.359375 -6.640625 2.703125 -6.359375 C 3.046875 -6.085938 3.628906 -5.832031 4.453125 -5.59375 C 5.285156 -5.363281 5.9375 -5.109375 6.40625 -4.828125 C 6.875 -4.546875 7.21875 -4.21875 7.4375 -3.84375 C 7.664062 -3.46875 7.78125 -3.03125 7.78125 -2.53125 C 7.78125 -1.71875 7.460938 -1.066406 6.828125 -0.578125 C 6.203125 -0.0976562 5.363281 0.140625 4.3125 0.140625 C 3.625 0.140625 2.984375 0.0078125 2.390625 -0.25 C 1.804688 -0.519531 1.351562 -0.878906 1.03125 -1.328125 C 0.707031 -1.785156 0.546875 -2.304688 0.546875 -2.890625 L 1.859375 -2.890625 C 1.859375 -2.285156 2.082031 -1.804688 2.53125 -1.453125 C 2.976562 -1.109375 3.570312 -0.9375 4.3125 -0.9375 C 5.007812 -0.9375 5.539062 -1.078125 5.90625 -1.359375 C 6.269531 -1.640625 6.453125 -2.023438 6.453125 -2.515625 C 6.453125 -3.003906 6.28125 -3.378906 5.9375 -3.640625 C 5.601562 -3.910156 4.988281 -4.175781 4.09375 -4.4375 Z M 4.09375 -4.4375 "/></g></g></g><g fill="#ffffff" fill-opacity="1"><g transform="translate(141.625973, 337.097936)"><g><path d="M 3.921875 -0.890625 C 4.367188 -0.890625 4.757812 -1.023438 5.09375 -1.296875 C 5.4375 -1.578125 5.628906 -1.921875 5.671875 -2.328125 L 6.859375 -2.328125 C 6.835938 -1.910156 6.691406 -1.507812 6.421875 -1.125 C 6.148438 -0.738281 5.789062 -0.429688 5.34375 -0.203125 C 4.894531 0.0234375 4.421875 0.140625 3.921875 0.140625 C 2.910156 0.140625 2.109375 -0.191406 1.515625 -0.859375 C 0.921875 -1.535156 0.625 -2.457031 0.625 -3.625 L 0.625 -3.84375 C 0.625 -4.5625 0.753906 -5.203125 1.015625 -5.765625 C 1.285156 -6.328125 1.664062 -6.757812 2.15625 -7.0625 C 2.65625 -7.375 3.242188 -7.53125 3.921875 -7.53125 C 4.742188 -7.53125 5.429688 -7.28125 5.984375 -6.78125 C 6.535156 -6.289062 6.828125 -5.648438 6.859375 -4.859375 L 5.671875 -4.859375 C 5.628906 -5.335938 5.445312 -5.726562 5.125 -6.03125 C 4.800781 -6.34375 4.398438 -6.5 3.921875 -6.5 C 3.273438 -6.5 2.773438 -6.265625 2.421875 -5.796875 C 2.066406 -5.335938 1.890625 -4.671875 1.890625 -3.796875 L 1.890625 -3.5625 C 1.890625 -2.707031 2.066406 -2.046875 2.421875 -1.578125 C 2.773438 -1.117188 3.273438 -0.890625 3.921875 -0.890625 Z M 3.921875 -0.890625 "/></g></g></g><g fill="#ffffff" fill-opacity="1"><g transform="translate(148.950009, 337.097936)"><g><path d="M 4.53125 -6.265625 C 4.34375 -6.296875 4.132812 -6.3125 3.90625 -6.3125 C 3.082031 -6.3125 2.519531 -5.957031 2.21875 -5.25 L 2.21875 0 L 0.953125 0 L 0.953125 -7.390625 L 2.1875 -7.390625 L 2.203125 -6.546875 C 2.617188 -7.203125 3.207031 -7.53125 3.96875 -7.53125 C 4.21875 -7.53125 4.40625 -7.5 4.53125 -7.4375 Z M 4.53125 -6.265625 "/></g></g></g><g fill="#ffffff" fill-opacity="1"><g transform="translate(153.68467, 337.097936)"><g><path d="M 2.328125 0 L 1.0625 0 L 1.0625 -7.390625 L 2.328125 -7.390625 Z M 0.96875 -9.359375 C 0.96875 -9.566406 1.03125 -9.738281 1.15625 -9.875 C 1.28125 -10.019531 1.460938 -10.09375 1.703125 -10.09375 C 1.953125 -10.09375 2.140625 -10.019531 2.265625 -9.875 C 2.398438 -9.738281 2.46875 -9.566406 2.46875 -9.359375 C 2.46875 -9.148438 2.398438 -8.976562 2.265625 -8.84375 C 2.140625 -8.707031 1.953125 -8.640625 1.703125 -8.640625 C 1.460938 -8.640625 1.28125 -8.707031 1.15625 -8.84375 C 1.03125 -8.976562 0.96875 -9.148438 0.96875 -9.359375 Z M 0.96875 -9.359375 "/></g></g></g><g fill="#ffffff" fill-opacity="1"><g transform="translate(157.080235, 337.097936)"><g><path d="M 7.203125 -3.609375 C 7.203125 -2.484375 6.941406 -1.578125 6.421875 -0.890625 C 5.910156 -0.203125 5.21875 0.140625 4.34375 0.140625 C 3.445312 0.140625 2.738281 -0.144531 2.21875 -0.71875 L 2.21875 2.84375 L 0.953125 2.84375 L 0.953125 -7.390625 L 2.109375 -7.390625 L 2.171875 -6.578125 C 2.691406 -7.210938 3.410156 -7.53125 4.328125 -7.53125 C 5.210938 -7.53125 5.910156 -7.195312 6.421875 -6.53125 C 6.941406 -5.863281 7.203125 -4.929688 7.203125 -3.734375 Z M 5.9375 -3.765625 C 5.9375 -4.597656 5.757812 -5.253906 5.40625 -5.734375 C 5.050781 -6.210938 4.5625 -6.453125 3.9375 -6.453125 C 3.175781 -6.453125 2.601562 -6.113281 2.21875 -5.4375 L 2.21875 -1.90625 C 2.601562 -1.226562 3.179688 -0.890625 3.953125 -0.890625 C 4.566406 -0.890625 5.050781 -1.128906 5.40625 -1.609375 C 5.757812 -2.097656 5.9375 -2.816406 5.9375 -3.765625 Z M 5.9375 -3.765625 "/></g></g></g><g fill="#ffffff" fill-opacity="1"><g transform="translate(164.930343, 337.097936)"><g><path d="M 2.671875 -9.1875 L 2.671875 -7.390625 L 4.046875 -7.390625 L 4.046875 -6.421875 L 2.671875 -6.421875 L 2.671875 -1.828125 C 2.671875 -1.535156 2.734375 -1.3125 2.859375 -1.15625 C 2.984375 -1.007812 3.191406 -0.9375 3.484375 -0.9375 C 3.628906 -0.9375 3.832031 -0.96875 4.09375 -1.03125 L 4.09375 0 C 3.757812 0.09375 3.4375 0.140625 3.125 0.140625 C 2.550781 0.140625 2.117188 -0.03125 1.828125 -0.375 C 1.546875 -0.71875 1.40625 -1.203125 1.40625 -1.828125 L 1.40625 -6.421875 L 0.0625 -6.421875 L 0.0625 -7.390625 L 1.40625 -7.390625 L 1.40625 -9.1875 Z M 2.671875 -9.1875 "/></g></g></g><g clip-path="url(#7ad1121557)"><path fill="#ffffff" d="M 212.761719 353.34375 L 179.511719 353.34375 C 179.058594 353.34375 178.691406 352.976562 178.691406 352.527344 L 178.691406 347.570312 C 178.691406 347.117188 179.058594 346.75 179.511719 346.75 C 179.964844 346.75 180.332031 347.117188 180.332031 347.570312 L 180.332031 351.707031 L 211.941406 351.707031 L 211.941406 347.570312 C 211.941406 347.117188 212.308594 346.75 212.761719 346.75 C 213.214844 346.75 213.582031 347.117188 213.582031 347.570312 L 213.582031 352.527344 C 213.582031 352.976562 213.214844 353.34375 212.761719 353.34375 Z M 212.761719 353.34375 " fill-opacity="1" fill-rule="nonzero"/></g><g clip-path="url(#2266f11d1b)"><path fill="#ffffff" d="M 212.761719 335.746094 C 212.308594 335.746094 211.941406 335.378906 211.941406 334.925781 L 211.941406 316.273438 L 203.578125 316.273438 C 203.128906 316.273438 202.761719 315.90625 202.761719 315.453125 L 202.761719 307.246094 L 180.332031 307.246094 L 180.332031 334.925781 C 180.332031 335.378906 179.964844 335.746094 179.511719 335.746094 C 179.058594 335.746094 178.691406 335.378906 178.691406 334.925781 L 178.691406 306.429688 C 178.691406 305.976562 179.058594 305.609375 179.511719 305.609375 L 203.578125 305.609375 C 204.03125 305.609375 204.398438 305.976562 204.398438 306.429688 L 204.398438 314.632812 L 212.761719 314.632812 C 213.214844 314.632812 213.582031 315 213.582031 315.453125 L 213.582031 334.925781 C 213.582031 335.378906 213.214844 335.746094 212.761719 335.746094 Z M 212.761719 335.746094 " fill-opacity="1" fill-rule="nonzero"/></g><g clip-path="url(#11a8f1231a)"><path fill="#ffffff" d="M 212.761719 316.273438 C 212.554688 316.273438 212.347656 316.195312 212.1875 316.039062 L 203.003906 307.011719 C 202.683594 306.695312 202.675781 306.175781 202.996094 305.851562 C 203.3125 305.53125 203.832031 305.523438 204.15625 305.84375 L 213.335938 314.871094 C 213.660156 315.1875 213.664062 315.703125 213.347656 316.027344 C 213.183594 316.191406 212.972656 316.273438 212.761719 316.273438 Z M 212.761719 316.273438 " fill-opacity="1" fill-rule="nonzero"/></g><g clip-path="url(#0c21e94f85)"><path fill="#ffffff" d="M 215.226562 348.386719 L 177.046875 348.386719 C 176.101562 348.386719 175.335938 347.621094 175.335938 346.679688 L 175.335938 335.8125 C 175.335938 334.871094 176.101562 334.105469 177.046875 334.105469 L 215.226562 334.105469 C 216.171875 334.105469 216.9375 334.871094 216.9375 335.8125 L 216.9375 346.679688 C 216.9375 347.621094 216.167969 348.386719 215.226562 348.386719 Z M 177.046875 335.746094 C 177.007812 335.746094 176.976562 335.777344 176.976562 335.816406 L 176.976562 346.679688 C 176.976562 346.71875 177.007812 346.75 177.046875 346.75 L 215.226562 346.75 C 215.265625 346.75 215.296875 346.71875 215.296875 346.679688 L 215.296875 335.816406 C 215.296875 335.777344 215.265625 335.746094 215.226562 335.746094 Z M 177.046875 335.746094 " fill-opacity="1" fill-rule="nonzero"/></g><path fill="#ffffff" d="M 202.644531 329.382812 C 202.441406 329.382812 202.238281 329.308594 202.082031 329.15625 C 201.753906 328.84375 201.742188 328.328125 202.054688 328 L 204.730469 325.191406 L 202.054688 322.382812 C 201.742188 322.054688 201.753906 321.535156 202.082031 321.222656 C 202.40625 320.910156 202.925781 320.921875 203.238281 321.25 L 206.457031 324.625 C 206.761719 324.941406 206.761719 325.4375 206.457031 325.753906 L 203.238281 329.128906 C 203.078125 329.296875 202.863281 329.382812 202.644531 329.382812 Z M 202.644531 329.382812 " fill-opacity="1" fill-rule="nonzero"/><path fill="#ffffff" d="M 189.628906 329.382812 C 189.410156 329.382812 189.195312 329.296875 189.035156 329.128906 L 185.816406 325.757812 C 185.511719 325.4375 185.511719 324.941406 185.816406 324.625 L 189.035156 321.25 C 189.347656 320.921875 189.867188 320.910156 190.191406 321.222656 C 190.519531 321.535156 190.53125 322.054688 190.21875 322.382812 L 187.542969 325.191406 L 190.21875 328 C 190.53125 328.328125 190.519531 328.847656 190.191406 329.160156 C 190.035156 329.308594 189.832031 329.382812 189.628906 329.382812 Z M 189.628906 329.382812 " fill-opacity="1" fill-rule="nonzero"/><path fill="#ffffff" d="M 194.714844 330.117188 C 194.625 330.117188 194.539062 330.101562 194.449219 330.070312 C 194.019531 329.925781 193.792969 329.457031 193.941406 329.027344 L 196.78125 320.816406 C 196.929688 320.386719 197.398438 320.160156 197.824219 320.308594 C 198.253906 320.457031 198.480469 320.925781 198.332031 321.351562 L 195.492188 329.566406 C 195.371094 329.902344 195.054688 330.117188 194.714844 330.117188 Z M 194.714844 330.117188 " fill-opacity="1" fill-rule="nonzero"/><path fill="#ffffff" d="M 192.058594 345.65625 C 190.523438 345.65625 189.273438 344.410156 189.273438 342.875 C 189.273438 342.421875 189.640625 342.054688 190.09375 342.054688 C 190.546875 342.054688 190.914062 342.421875 190.914062 342.875 C 190.914062 343.503906 191.425781 344.019531 192.058594 344.019531 C 192.6875 344.019531 193.203125 343.503906 193.203125 342.875 L 193.203125 337.65625 C 193.203125 337.203125 193.570312 336.835938 194.019531 336.835938 C 194.472656 336.835938 194.839844 337.203125 194.839844 337.65625 L 194.839844 342.875 C 194.839844 344.410156 193.59375 345.65625 192.058594 345.65625 Z M 192.058594 345.65625 " fill-opacity="1" fill-rule="nonzero"/><path fill="#ffffff" d="M 194.019531 338.476562 L 190.957031 338.476562 C 190.503906 338.476562 190.136719 338.109375 190.136719 337.65625 C 190.136719 337.203125 190.503906 336.835938 190.957031 336.835938 L 194.019531 336.835938 C 194.472656 336.835938 194.839844 337.203125 194.839844 337.65625 C 194.839844 338.109375 194.472656 338.476562 194.019531 338.476562 Z M 194.019531 338.476562 " fill-opacity="1" fill-rule="nonzero"/><path fill="#ffffff" d="M 200.382812 345.65625 L 197.855469 345.65625 C 197.402344 345.65625 197.035156 345.289062 197.035156 344.839844 C 197.035156 344.386719 197.402344 344.019531 197.855469 344.019531 L 200.382812 344.019531 C 200.640625 344.019531 200.886719 343.917969 201.074219 343.730469 C 201.257812 343.546875 201.359375 343.300781 201.359375 343.042969 C 201.359375 342.503906 200.921875 342.0625 200.386719 342.0625 L 199.652344 342.0625 C 198.207031 342.0625 197.035156 340.890625 197.035156 339.449219 C 197.035156 338.007812 198.207031 336.835938 199.652344 336.835938 L 202.179688 336.835938 C 202.632812 336.835938 203 337.203125 203 337.65625 C 203 338.109375 202.632812 338.476562 202.179688 338.476562 L 199.652344 338.476562 C 199.113281 338.476562 198.671875 338.914062 198.671875 339.449219 C 198.671875 339.988281 199.113281 340.425781 199.652344 340.425781 L 200.386719 340.425781 C 201.824219 340.425781 203 341.597656 203 343.042969 C 203 343.738281 202.726562 344.394531 202.230469 344.890625 C 201.738281 345.386719 201.078125 345.65625 200.382812 345.65625 Z M 200.382812 345.65625 " fill-opacity="1" fill-rule="nonzero"/><path stroke-linecap="butt" transform="matrix(0.75, 0, 0, 0.75, 222.967695, 88.151457)" fill="none" stroke-linejoin="miter" d="M 0.00140705 2.001182 L 70.261827 2.001182 " stroke="#4b4b4b" stroke-width="4" stroke-opacity="1" stroke-miterlimit="4"/><path stroke-linecap="round" transform="matrix(0.75, 0, 0, 0.75, 222.967695, 88.151457)" fill-opacity="1" fill="#4b4b4b" fill-rule="nonzero" stroke-linejoin="round" d="M 71.261827 -3.998818 L 79.261827 2.001182 L 71.261827 8.001182 Z M 71.261827 -3.998818 " stroke="#4b4b4b" stroke-width="4" stroke-opacity="1" stroke-miterlimit="4"/><path stroke-linecap="butt" transform="matrix(0.75, 0, 0, 0.75, 222.967695, 205.402936)" fill="none" stroke-linejoin="miter" d="M 0.00140705 1.99921 L 70.261827 1.99921 " stroke="#4b4b4b" stroke-width="4" stroke-opacity="1" stroke-miterlimit="4"/><path stroke-linecap="round" transform="matrix(0.75, 0, 0, 0.75, 222.967695, 205.402936)" fill-opacity="1" fill="#4b4b4b" fill-rule="nonzero" stroke-linejoin="round" d="M 71.261827 -4.00079 L 79.261827 1.99921 L 71.261827 7.99921 Z M 71.261827 -4.00079 " stroke="#4b4b4b" stroke-width="4" stroke-opacity="1" stroke-miterlimit="4"/><path stroke-linecap="butt" transform="matrix(0.75, 0, 0, 0.75, 222.967695, 330.792925)" fill="none" stroke-linejoin="miter" d="M 0.00140705 2.000058 L 70.261827 2.000058 " stroke="#4b4b4b" stroke-width="4" stroke-opacity="1" stroke-miterlimit="4"/><path stroke-linecap="round" transform="matrix(0.75, 0, 0, 0.75, 222.967695, 330.792925)" fill-opacity="1" fill="#4b4b4b" fill-rule="nonzero" stroke-linejoin="round" d="M 71.261827 -3.999942 L 79.261827 2.000058 L 71.261827 8.000058 Z M 71.261827 -3.999942 " stroke="#4b4b4b" stroke-width="4" stroke-opacity="1" stroke-miterlimit="4"/><path stroke-linecap="butt" transform="matrix(0.75, -0.000000000000000093, 0.000000000000000093, 0.75, 456.715733, 86.651457)" fill="none" stroke-linejoin="miter" d="M -0.00118563 2.001182 L 75.295693 2.001182 " stroke="#4b4b4b" stroke-width="4" stroke-opacity="1" stroke-miterlimit="4"/><path stroke-linecap="round" transform="matrix(0.75, -0.000000000000000093, 0.000000000000000093, 0.75, 456.715733, 86.651457)" fill-opacity="1" fill="#4b4b4b" fill-rule="nonzero" stroke-linejoin="round" d="M 76.295693 -3.998818 L 84.295693 2.001182 L 76.295693 8.001182 Z M 76.295693 -3.998818 " stroke="#4b4b4b" stroke-width="4" stroke-opacity="1" stroke-miterlimit="4"/><path stroke-linecap="butt" transform="matrix(0.75, 0, 0, 0.75, 456.680981, 209.418966)" fill="none" stroke-linejoin="miter" d="M -0.00172463 1.99867 L 75.342029 1.99867 " stroke="#4b4b4b" stroke-width="4" stroke-opacity="1" stroke-miterlimit="4"/><path stroke-linecap="round" transform="matrix(0.75, 0, 0, 0.75, 456.680981, 209.418966)" fill-opacity="1" fill="#4b4b4b" fill-rule="nonzero" stroke-linejoin="round" d="M 76.342029 -4.00133 L 84.342029 1.99867 L 76.342029 7.99867 Z M 76.342029 -4.00133 " stroke="#4b4b4b" stroke-width="4" stroke-opacity="1" stroke-miterlimit="4"/><path stroke-linecap="butt" transform="matrix(0.75, 0, 0, 0.75, 456.715733, 329.292925)" fill="none" stroke-linejoin="miter" d="M -0.00118563 2.000058 L 75.342568 2.000058 " stroke="#4b4b4b" stroke-width="4" stroke-opacity="1" stroke-miterlimit="4"/><path stroke-linecap="round" transform="matrix(0.75, 0, 0, 0.75, 456.715733, 329.292925)" fill-opacity="1" fill="#4b4b4b" fill-rule="nonzero" stroke-linejoin="round" d="M 76.342568 -3.999942 L 84.342568 2.000058 L 76.342568 8.000058 Z M 76.342568 -3.999942 " stroke="#4b4b4b" stroke-width="4" stroke-opacity="1" stroke-miterlimit="4"/></svg>