<svg xmlns="http://www.w3.org/2000/svg" xmlns:xlink="http://www.w3.org/1999/xlink" width="40" zoomAndPan="magnify" viewBox="0 0 30 30.000001" height="40" preserveAspectRatio="xMidYMid meet" version="1.0"><defs><clipPath id="a59c58c1aa"><path d="M 0.484375 0 L 29.515625 0 L 29.515625 29.03125 L 0.484375 29.03125 Z M 0.484375 0 " clip-rule="nonzero"/></clipPath><clipPath id="bedbb71424"><path d="M 12 11 L 23.710938 11 L 23.710938 23.226562 L 12 23.226562 Z M 12 11 " clip-rule="nonzero"/></clipPath><clipPath id="be26a663cf"><path d="M 6.289062 11 L 10 11 L 10 13 L 6.289062 13 Z M 6.289062 11 " clip-rule="nonzero"/></clipPath><clipPath id="1974798f23"><path d="M 11 5.804688 L 13 5.804688 L 13 9 L 11 9 Z M 11 5.804688 " clip-rule="nonzero"/></clipPath></defs><g clip-path="url(#a59c58c1aa)"><path fill="#4b4b4b" d="M 0.484375 0 L 29.515625 0 L 29.515625 29.03125 L 0.484375 29.03125 Z M 0.484375 0 " fill-opacity="1" fill-rule="nonzero"/></g><g clip-path="url(#bedbb71424)"><path fill="#ffffff" d="M 20.328125 18.210938 C 20.230469 18.113281 20.183594 17.976562 20.195312 17.839844 C 20.210938 17.699219 20.285156 17.578125 20.398438 17.5 L 23.699219 15.3125 L 12.410156 11.925781 L 15.796875 23.214844 L 17.984375 19.914062 C 18.0625 19.796875 18.1875 19.722656 18.324219 19.710938 C 18.460938 19.695312 18.597656 19.746094 18.695312 19.84375 L 21.511719 22.65625 C 21.691406 22.835938 21.984375 22.835938 22.164062 22.65625 L 23.140625 21.675781 C 23.230469 21.589844 23.277344 21.476562 23.277344 21.351562 C 23.277344 21.226562 23.230469 21.113281 23.140625 21.023438 Z M 20.328125 18.210938 " fill-opacity="1" fill-rule="nonzero"/></g><path fill="#ffffff" d="M 8.621094 7.484375 C 8.441406 7.304688 8.148438 7.304688 7.96875 7.484375 C 7.789062 7.664062 7.789062 7.957031 7.96875 8.136719 L 9.273438 9.441406 C 9.363281 9.53125 9.480469 9.578125 9.597656 9.578125 C 9.714844 9.578125 9.835938 9.53125 9.925781 9.441406 C 10.105469 9.261719 10.105469 8.96875 9.925781 8.789062 Z M 8.621094 7.484375 " fill-opacity="1" fill-rule="nonzero"/><path fill="#ffffff" d="M 14.496094 9.578125 C 14.613281 9.578125 14.730469 9.53125 14.820312 9.441406 L 16.125 8.132812 C 16.304688 7.953125 16.304688 7.660156 16.125 7.480469 C 15.945312 7.300781 15.652344 7.300781 15.472656 7.480469 L 14.167969 8.789062 C 13.988281 8.96875 13.988281 9.261719 14.167969 9.441406 C 14.257812 9.53125 14.378906 9.578125 14.496094 9.578125 Z M 14.496094 9.578125 " fill-opacity="1" fill-rule="nonzero"/><path fill="#ffffff" d="M 9.273438 13.683594 L 7.96875 14.988281 C 7.789062 15.167969 7.789062 15.460938 7.96875 15.640625 C 8.058594 15.730469 8.175781 15.777344 8.292969 15.777344 C 8.410156 15.777344 8.527344 15.730469 8.617188 15.640625 L 9.925781 14.335938 C 10.105469 14.15625 10.105469 13.863281 9.925781 13.683594 C 9.746094 13.503906 9.453125 13.503906 9.273438 13.683594 Z M 9.273438 13.683594 " fill-opacity="1" fill-rule="nonzero"/><g clip-path="url(#be26a663cf)"><path fill="#ffffff" d="M 9.046875 11.5625 C 9.046875 11.308594 8.839844 11.101562 8.585938 11.101562 L 6.738281 11.101562 C 6.488281 11.101562 6.277344 11.308594 6.277344 11.5625 C 6.277344 11.816406 6.488281 12.023438 6.738281 12.023438 L 8.585938 12.023438 C 8.84375 12.023438 9.046875 11.816406 9.046875 11.5625 Z M 9.046875 11.5625 " fill-opacity="1" fill-rule="nonzero"/></g><g clip-path="url(#1974798f23)"><path fill="#ffffff" d="M 12.507812 6.257812 C 12.507812 6.003906 12.300781 5.792969 12.046875 5.792969 C 11.792969 5.792969 11.585938 6.003906 11.585938 6.257812 L 11.585938 8.101562 C 11.585938 8.355469 11.792969 8.5625 12.046875 8.5625 C 12.300781 8.5625 12.507812 8.355469 12.507812 8.101562 Z M 12.507812 6.257812 " fill-opacity="1" fill-rule="nonzero"/></g></svg>