<?xml version="1.0" encoding="UTF-8" standalone="no"?>
<!DOCTYPE svg PUBLIC "-//W3C//DTD SVG 1.1//EN" "http://www.w3.org/Graphics/SVG/1.1/DTD/svg11.dtd">
<svg width="100%" height="100%" viewBox="0 0 1774 1126" version="1.1" xmlns="http://www.w3.org/2000/svg" xmlns:xlink="http://www.w3.org/1999/xlink" xml:space="preserve" xmlns:serif="http://www.serif.com/" style="fill-rule:evenodd;clip-rule:evenodd;stroke-linecap:round;stroke-linejoin:round;stroke-miterlimit:1.5;">
    <g id="Layer1">
        <g transform="matrix(0.898785,0,0,0.965642,18.1257,-37.5876)">
            <rect x="153.935" y="178.239" width="60.935" height="765.86" style="fill:rgb(77,77,77);stroke:rgb(235,235,235);stroke-width:1.07px;"/>
        </g>
        <g transform="matrix(0.882557,0,0,0.882557,876.622,694.583)">
            <text x="179.858px" y="298.311px" style="font-family:'ArialMT', 'Arial', sans-serif;font-size:32px;">1. <tspan x="213.67px 235.014px " y="298.311px 298.311px ">Ac</tspan>tivity Bar - Icons for main views</text>
            <text x="179.858px" y="331.358px" style="font-family:'ArialMT', 'Arial', sans-serif;font-size:32px;">2. Side Bar - File explorer<tspan x="540.904px 549.795px " y="331.358px 331.358px ">, </tspan>search, etc.</text>
            <text x="179.858px" y="364.405px" style="font-family:'ArialMT', 'Arial', sans-serif;font-size:32px;">3. Editor <tspan x="306.154px 327.498px " y="364.405px 364.405px ">Ar</tspan>ea - Main coding space</text>
            <text x="179.858px" y="397.452px" style="font-family:'ArialMT', 'Arial', sans-serif;font-size:32px;">4. Panel - <tspan x="325.139px 341.139px 358.936px " y="397.452px 397.452px 397.452px ">Ter</tspan>minal, problems, output</text>
            <g transform="matrix(32,0,0,32,795.248,430.499)">
            </g>
            <text x="179.858px" y="430.499px" style="font-family:'ArialMT', 'Arial', sans-serif;font-size:32px;">5. Status Bar - Information and status items</text>
        </g>
        <g transform="matrix(1.00459,0,0,1.35259,-0.151684,-400.43)">
            <rect x="159.221" y="943.723" width="1472.96" height="29.484" style="fill:rgb(106,8,8);fill-opacity:0.5;"/>
        </g>
        <g transform="matrix(1,0,0,1,379.474,9.44659)">
            <g transform="matrix(32,0,0,32,546.99,888.255)">
            </g>
            <text x="529.193px" y="888.255px" style="font-family:'ArialMT', 'Arial', sans-serif;font-size:32px;">5</text>
        </g>
        <g transform="matrix(1,0,0,1,-3.60223,-70.6642)">
            <rect x="210.749" y="207.98" width="261.017" height="735.979" style="fill:rgb(216,216,216);stroke:black;stroke-width:1px;"/>
        </g>
        <g transform="matrix(1.01924,0,0,1.01534,-23.6519,-84.5177)">
            <rect x="484.68" y="729.239" width="1143.13" height="215.501" style="fill:rgb(211,212,217);stroke:black;stroke-width:0.98px;"/>
        </g>
        <g transform="matrix(1,0,0,1,1.524,0)">
            <g transform="matrix(32,0,0,32,925.533,766.305)">
            </g>
            <text x="907.736px" y="766.305px" style="font-family:'ArialMT', 'Arial', sans-serif;font-size:32px;">4</text>
        </g>
        <g transform="matrix(1.00937,0,0,0.993595,-6.72945,-67.242)">
            <rect x="471.719" y="210.538" width="1154.05" height="517.226" style="fill:white;stroke:black;stroke-width:1px;"/>
        </g>
        <g transform="matrix(1,0,0,1,134.008,-73.2262)">
            <g transform="matrix(32,0,0,32,792.534,482.483)">
            </g>
            <text x="774.737px" y="482.483px" style="font-family:'ArialMT', 'Arial', sans-serif;font-size:32px;">3</text>
        </g>
        <g transform="matrix(1,0,0,1,2.54512,-67.475)">
            <g transform="matrix(32,0,0,32,187.09,476.935)">
            </g>
            <text x="169.293px" y="476.935px" style="font-family:'ArialMT', 'Arial', sans-serif;font-size:32px;fill:white;">1</text>
        </g>
        <g transform="matrix(1,0,0,1,0,2.61022)">
            <g transform="matrix(32,0,0,32,327.187,406.85)">
            </g>
            <text x="309.39px" y="406.85px" style="font-family:'ArialMT', 'Arial', sans-serif;font-size:32px;">2</text>
        </g>
    </g>
</svg>
